<?xml version="1.0" encoding="UTF-8"?>
<!DOCTYPE svg PUBLIC "-//W3C//DTD SVG 1.1//EN" "http://www.w3.org/Graphics/SVG/1.1/DTD/svg11.dtd">
<!-- Creator: CorelDRAW X7 -->
<svg xmlns="http://www.w3.org/2000/svg" xml:space="preserve" width="1024px" height="1024px" version="1.1" style="shape-rendering:geometricPrecision; text-rendering:geometricPrecision; image-rendering:optimizeQuality; fill-rule:evenodd; clip-rule:evenodd"
viewBox="0 0 1024 1024"
 xmlns:xlink="http://www.w3.org/1999/xlink">
 <defs>
  <style type="text/css">
   <![CDATA[
    .fil1 {fill:#010D23}
    .fil45 {fill:#041938}
    .fil10 {fill:#082857}
    .fil56 {fill:#093868}
    .fil41 {fill:#09659A}
    .fil70 {fill:#0A325D}
    .fil25 {fill:#0A4A7D}
    .fil55 {fill:#0A4C83}
    .fil47 {fill:#0A548C}
    .fil29 {fill:#0A5B93}
    .fil53 {fill:#0B3463}
    .fil33 {fill:#0C3B6B}
    .fil58 {fill:#0D78B7}
    .fil8 {fill:#123685}
    .fil7 {fill:#144C7C}
    .fil6 {fill:#155284}
    .fil59 {fill:#1578B4}
    .fil27 {fill:#1588C9}
    .fil4 {fill:#1677A9}
    .fil71 {fill:#167BC4}
    .fil37 {fill:#1896C8}
    .fil44 {fill:#1997D5}
    .fil11 {fill:#2687B8}
    .fil54 {fill:#269AD7}
    .fil2 {fill:#27629A}
    .fil3 {fill:#286AB2}
    .fil57 {fill:#2896C9}
    .fil12 {fill:#2975B7}
    .fil5 {fill:#2A7999}
    .fil69 {fill:#2CACCD}
    .fil60 {fill:#2EA4BC}
    .fil52 {fill:#32ACE4}
    .fil75 {fill:#34CFEA}
    .fil67 {fill:#37A8D9}
    .fil50 {fill:#37B6D9}
    .fil48 {fill:#3876A9}
    .fil26 {fill:#3885C7}
    .fil15 {fill:#3897D8}
    .fil63 {fill:#38B7E5}
    .fil65 {fill:#477599}
    .fil42 {fill:#47C8E9}
    .fil66 {fill:#48A7E3}
    .fil24 {fill:#48B8E5}
    .fil34 {fill:#4995CA}
    .fil35 {fill:#4998B5}
    .fil61 {fill:#4AD1EF}
    .fil23 {fill:#4DABC9}
    .fil38 {fill:#578AB8}
    .fil46 {fill:#57D4EC}
    .fil31 {fill:#5885AA}
    .fil72 {fill:#58B7D9}
    .fil20 {fill:#66A9D6}
    .fil22 {fill:#68A5C9}
    .fil62 {fill:#68B7DA}
    .fil19 {fill:#68D9F2}
    .fil40 {fill:#70CAF1}
    .fil74 {fill:#70E5F2}
    .fil64 {fill:#749CBA}
    .fil51 {fill:#77B7CB}
    .fil30 {fill:#78C7E7}
    .fil21 {fill:#79A3BB}
    .fil9 {fill:#79C4D8}
    .fil32 {fill:#88B3CC}
    .fil49 {fill:#96DAF2}
    .fil17 {fill:#97C6DB}
    .fil28 {fill:#97CAE3}
    .fil16 {fill:#98D6EA}
    .fil39 {fill:#A7D8E9}
    .fil18 {fill:#A8E4F3}
    .fil43 {fill:#B5DBEA}
    .fil36 {fill:#BAE8F4}
    .fil76 {fill:#C6EAF5}
    .fil0 {fill:#C8E5EC}
    .fil13 {fill:#D7EDF4}
    .fil73 {fill:#E7F8F8}
    .fil14 {fill:#EBF4F4}
    .fil68 {fill:#FCFCFB}
   ]]>
  </style>
 </defs>
 <g id="Слой_x0020_1">
  <metadata id="CorelCorpID_0Corel-Layer"/>
  <g id="_2162367898144">
   <path class="fil0" d="M225 809l0 33 0 13c-15,1 -73,-13 -83,-19 -5,-3 -10,-11 -6,-17 6,-11 45,-23 55,-23l1 -1 34 -7 -1 21zm1 47c-1,-14 1,-43 2,-57 0,-16 -1,-11 15,-14 8,-1 17,-2 25,-3 2,6 -2,29 -2,39 1,14 2,26 3,40l-43 -5zm31 -205c-1,4 -6,13 -8,18l-5 15c-1,3 0,1 -2,4 0,7 -4,14 -6,21l-8 45c-1,11 -1,17 -3,25l-32 5c0,-34 4,-77 15,-106 1,-8 6,-18 9,-25 3,-8 8,-15 11,-21 14,-21 19,-30 39,-45 13,-9 16,-7 38,5 3,2 6,4 9,5 19,10 27,18 42,27 -17,4 -35,23 -43,36 -3,3 -4,5 -7,8 -2,4 -9,17 -12,19l-12 31c-6,19 -10,34 -13,56l-40 4c1,-19 9,-66 16,-82 2,-8 12,-33 16,-39 4,-11 15,-25 23,-35 4,-5 8,-8 14,-13 2,-1 15,-9 15,-10 -1,-5 -8,-1 -10,1 -3,1 -6,3 -9,5 -5,5 -10,9 -14,14 -2,3 -4,4 -6,7l-17 25zm-85 16c-4,20 -7,37 -10,59 -2,21 -1,41 -2,63 -5,3 -22,7 -26,7 0,-60 1,-99 19,-151 8,-20 17,-39 27,-53 8,-10 29,-31 45,-35 4,3 7,6 13,7 -1,1 -1,1 -2,2 0,0 -1,0 -1,1 0,0 -1,0 -1,0 -7,4 -15,10 -21,16 -6,6 -13,15 -18,24 -16,29 -14,37 -23,60zm87 -143c3,-31 7,-67 18,-96 5,-15 11,-28 19,-38 2,-3 5,-5 7,-7 9,-8 12,-11 25,-17l12 7c-26,5 -41,34 -48,56 -4,14 -6,29 -8,43 -2,17 -2,45 -2,49l-23 3zm66 -166l-4 3c-23,12 -36,27 -45,54 -12,38 -10,52 -15,83l-2 4 1 22c-12,2 -22,5 -32,9 -12,5 -16,10 -25,15 -1,3 -3,4 -5,6 -20,20 -38,51 -47,77 -2,5 -10,32 -10,32l-7 43c-1,13 -3,26 -3,38 -1,14 0,27 0,41l1 13c-9,1 -22,7 -28,11 -8,5 -15,11 -12,26 4,5 7,9 14,13 42,21 79,26 130,33 48,7 103,11 151,12 90,3 232,7 319,-3 -4,-3 -7,-2 -13,-3 -17,-3 -27,-1 -45,-1l-189 -3c68,0 137,-1 205,-4 1,-1 3,-3 2,-6 -32,3 -70,2 -102,3 -33,1 -66,0 -100,1 -28,0 -170,-4 -192,-11l0 -6c-4,-7 -1,-80 1,-92 4,-26 15,-62 27,-79 6,-16 28,-41 40,-51l17 -12c7,2 25,16 32,21 11,7 31,16 33,18 11,3 22,8 35,7 8,1 20,-1 28,4l6 0c-3,-3 -4,-3 -8,-6 -9,-7 -26,-40 -32,-52l-38 0c1,2 38,50 49,51 -37,-18 -54,-50 -65,-56 -5,-3 -28,-5 -35,-6 3,6 42,40 48,44 3,2 5,4 8,6 3,3 6,6 9,5 -4,-3 -10,-6 -15,-8l-50 -35c-12,-8 -4,-4 -17,-8 -1,-1 -5,-3 -7,-4l-31 -17c-5,-1 -10,-4 -14,-6 -5,-2 -11,-3 -15,-5 -20,0 -50,38 -59,56 -12,23 -17,39 -22,64 -1,5 -2,19 -4,23l-4 63 -27 5c0,-13 0,-27 2,-40 1,-11 3,-25 4,-36 5,-41 26,-106 58,-130 5,-4 12,-8 19,-12 8,-3 17,0 25,2 10,1 21,4 31,5 11,1 21,2 32,3 45,5 157,10 198,9 44,-1 90,-2 133,-6 58,-6 61,-4 122,-17l5 0c-1,0 -1,1 2,3 14,13 9,6 26,25 3,4 6,8 8,13 3,1 7,10 9,13 7,16 13,28 18,46 3,16 7,31 10,48 2,9 6,50 7,53 1,-37 -6,-73 -14,-107 -4,-8 -7,-19 -10,-29 -9,-23 -23,-42 -40,-59 -3,-2 -2,-2 -5,-4l-6 -4 3 -2c6,-4 4,-2 5,-5 1,2 0,1 -4,3 -27,10 -48,13 -75,17l-36 3c-66,6 -147,9 -215,6 -14,-1 -25,0 -39,-1 -49,-5 -101,-3 -149,-12 -12,-2 -53,-6 -61,-21 6,2 11,3 18,5 10,4 42,11 51,9l-1 -1c-2,-2 -6,-4 -5,-10 0,0 0,0 0,0l1 -3c-10,-1 -24,-3 -29,-9 1,-4 4,-5 9,-7 4,-1 9,-2 13,-3 58,-13 129,-10 175,-18 5,-1 21,-5 24,-5 -15,-5 -101,1 -124,2 1,-37 6,-94 45,-110 30,29 100,45 145,35l47 -13 -6 1c4,-10 6,-4 9,-10 -7,-4 -11,8 -25,8l5 -5c2,-2 3,-2 3,-6 -5,0 -9,1 -12,-1 -4,5 -8,11 -12,9 -4,-2 2,-5 4,-11l-19 -1c-3,5 -3,9 -8,13 -3,-5 -3,1 1,-14l5 -13c-27,0 -54,-1 -81,-2l-77 -4c-36,3 -48,79 -47,117 3,-7 1,-40 13,-72 7,-19 20,-43 43,-42 3,3 5,5 8,7 -6,5 -13,6 -21,18 -16,26 -20,63 -19,95l-24 3c-9,0 -17,1 -25,2 0,-34 7,-101 36,-121 8,-6 19,-12 29,-10 5,0 6,2 10,0 -20,-6 -24,-8 -41,5 -32,24 -35,88 -34,126l-27 3c1,-16 1,-28 3,-43 3,-23 12,-67 31,-83 2,-3 3,-4 5,-6 5,-5 19,-14 26,-13l13 4c13,2 27,4 40,5 29,1 57,2 86,2l-86 -4c-21,-2 -63,-7 -70,-22 -1,-2 0,-2 -1,-4 -1,-2 0,0 -1,-2l-3 3z"/>
   <path class="fil1" d="M930 810c1,3 3,3 5,8 1,1 0,-1 2,2 1,3 0,1 0,3 4,20 -7,24 -17,30l1 13 0 23c-2,14 1,21 -7,30 -33,37 -166,55 -208,54 -9,0 -29,2 -40,3 -31,3 -91,4 -123,4 -102,0 -219,0 -319,-19 -36,-7 -113,-25 -117,-53 -3,-4 0,-50 -1,-60 -7,-4 -10,-8 -14,-13 0,0 0,0 0,0 -1,0 -1,1 -1,1 0,0 -1,0 -1,1 -3,2 -3,1 -6,0 -15,-7 -21,-5 -31,-10 0,0 0,-1 -1,-1l-16 -5c0,-1 0,-1 -2,-1 -7,0 -5,8 -5,11l0 12c3,30 33,79 56,98l21 17c23,16 52,31 81,36 46,7 102,4 150,4l310 0c51,0 103,1 155,-1 58,-2 99,-21 138,-54 16,-14 41,-49 47,-70 2,-17 12,-29 11,-70 0,-16 2,-16 -3,-15 -12,1 -9,2 -15,4l-19 7c0,1 0,1 -1,1l-1 1c-3,0 -6,0 -9,0 2,5 -3,-2 1,1 0,0 0,1 1,1 3,3 1,-1 3,3 -5,5 -4,4 -14,5 -1,0 -1,0 -1,0l-3 0c-2,-1 0,-2 -7,-3 -1,1 -2,-2 0,2z"/>
   <path class="fil2" d="M798 14c50,1 100,21 130,45 16,13 31,27 43,44 8,11 27,43 28,58 7,7 12,48 12,57 4,12 -1,138 -1,161 -2,-3 0,-3 -1,-7 -2,-5 -1,-2 -3,-1 -2,2 -5,3 -5,3 -4,2 0,2 -3,3l-2 -93c-5,10 -65,65 -76,76 -2,4 -50,51 -61,62 -3,2 -2,2 -5,3 -5,8 -79,75 -89,81 0,-4 0,-9 0,-13 -1,-11 0,-14 -2,-11l-1 42c6,4 24,4 40,13 1,1 20,18 29,22 1,-4 0,-2 0,-7 1,0 2,0 3,-1l47 -33c28,-22 68,-53 91,-79 10,-12 19,-25 21,-41 0,0 0,-1 0,-1 0,0 0,-1 0,-1 0,0 1,0 1,0 0,-1 0,-1 0,-1l1 -17c3,6 2,101 2,107 0,36 1,73 1,110l2 -3 8 4c2,-5 2,-17 2,-24 5,0 6,1 10,1 0,-4 -1,-4 -1,-7 1,-5 3,-6 4,-6 3,6 1,50 1,62l0 32c1,26 1,53 1,80 -1,13 0,27 0,40 0,12 -1,31 0,41 4,-6 1,-51 1,-63l0 -192c0,-85 0,-171 0,-256 0,-82 7,-142 -44,-211 -28,-37 -67,-65 -113,-80 -10,-3 -43,-13 -54,-10 -2,9 7,2 -20,6l-12 0c5,0 7,-1 10,1 1,1 2,2 2,2 0,0 1,1 1,1l-10 0c0,-2 6,-1 9,0 3,0 1,0 3,1z"/>
   <path class="fil3" d="M3 752c2,-7 0,-16 0,-23l0 -105c-1,-36 0,-75 0,-111 1,-20 -2,-61 3,-78 4,-11 -4,-18 9,-15 0,-1 0,-5 0,-5l3 15c1,1 3,3 6,2 3,-1 2,-1 4,-5 3,-1 -2,-2 1,0 2,3 -2,2 1,1l1 -86c9,1 0,2 14,2 1,3 -1,8 3,13 5,6 0,-4 10,10l6 4c-3,4 -3,2 -1,7 2,1 0,0 4,-1 1,5 1,4 4,6 0,-6 -1,-5 7,-5 -2,3 -1,4 -2,5 0,0 0,1 0,1 -5,9 1,-6 -2,2 7,-2 3,3 6,6 3,4 1,1 5,4 3,1 0,2 5,2 -1,2 -2,2 -3,5 4,1 1,2 6,5 -1,1 -3,1 -4,2l-6 4c-2,1 -3,-1 -3,3l0 5c0,0 0,0 1,0l2 14c2,1 4,2 6,2 0,3 0,3 -1,6 3,1 4,1 7,1l-4 3 3 4 -2 2c-3,1 0,-1 -2,1 3,1 -1,-3 2,4 2,4 -1,1 4,4 0,6 -1,3 0,8 -2,0 -2,0 -4,0 0,-1 0,-1 -1,-1l-2 -1c0,0 0,0 -1,0 0,4 1,5 -1,9l26 20c10,7 19,12 29,19 10,6 20,11 30,16 5,3 29,13 31,15 9,-5 13,-10 25,-15 10,-4 20,-7 32,-9l-1 -22c-4,-5 -1,-2 -6,-5l-10 -10c-7,-7 -4,-2 -12,-10l-3 -3c-8,-5 0,-3 -13,-11 -12,-7 -2,-5 -11,-10 -11,-6 -3,-5 -11,-11 -2,-1 -4,-2 -6,-4 -5,-4 -2,-1 -4,-6 -3,-5 -8,-6 -12,-9 -3,-4 -1,-5 -10,-11 -14,-9 -7,-4 -11,-10 -2,-4 -8,-6 -12,-9 -8,-5 -5,-7 -9,-11l-16 -12c-4,-5 0,-4 -6,-8 -6,-5 -19,-13 -22,-21 -4,-5 -21,-21 -27,-27 -6,-6 -24,-22 -26,-26l-2 66c-17,0 -13,-4 -14,-17 0,-16 -2,-79 0,-86 3,-19 -4,-46 11,-89 1,-6 5,-20 9,-24 7,-21 33,-55 46,-65 49,-44 93,-59 163,-59l553 0c-2,-1 0,-1 -3,-1 -3,-1 -9,-2 -9,0l10 0c0,0 -1,-1 -1,-1 0,0 -1,-1 -2,-2 -3,-2 -5,-1 -10,-1l12 0c27,-4 18,3 20,-6 0,0 -1,0 -1,0l-194 -1c-65,0 -131,0 -196,0 -65,0 -131,-1 -196,0 -106,2 -193,67 -220,171 -8,31 -7,57 -7,91 0,72 -1,482 2,488z"/>
   <path class="fil4" d="M594 426l-47 13c-45,10 -115,-6 -145,-35 -39,16 -44,73 -45,110 23,-1 109,-7 124,-2 -3,0 -19,4 -24,5 -46,8 -117,5 -175,18 -4,1 -9,2 -13,3 -5,2 -8,3 -9,7 5,6 19,8 29,9 28,3 56,9 86,10 30,2 63,2 93,5 0,-3 1,-7 -8,-9 -5,-1 -9,1 -14,-1 -5,-1 -7,-2 -12,-4 -4,-1 -1,0 -3,-1 -3,-1 0,1 -2,-1 -8,-8 -8,-2 -16,-6 -10,-5 -15,-4 -26,-5 -6,-1 -7,-1 -10,-5 10,-10 63,-9 68,-12 1,2 1,3 3,5 -1,-9 5,-12 13,-13 4,0 19,-3 21,-2 5,-18 6,-38 7,-57l20 3c9,13 2,-7 11,20 1,4 1,7 2,10 2,5 2,1 3,8 2,13 7,21 8,26 -10,3 -37,3 -48,2 12,4 45,4 59,1 5,-2 5,-1 5,-7 -2,2 -3,3 -8,3 -3,-24 -4,-19 -6,-49l-1 -17c-12,0 -43,3 -52,-1l1 -8c6,1 6,6 4,2 0,0 1,-1 1,0 0,0 1,-1 1,-1l38 2c0,0 -1,0 -1,1l-2 1c-1,0 -1,0 -1,0 -9,3 -24,2 -33,2 2,-2 3,0 9,1 11,1 26,-1 39,0 3,-11 0,-9 7,-9 2,6 3,8 -3,10 -4,1 2,-1 -2,0l-3 1c2,11 2,20 4,31 1,6 6,20 7,26 5,-2 20,1 26,6 7,4 6,2 4,11 -11,4 -27,7 -41,8 4,3 3,10 3,14 -11,3 -44,3 -55,1l0 -12c1,-5 0,-2 2,-2 -3,0 -3,-4 -2,13 -6,1 -9,1 -14,0l44 4c1,4 1,5 3,9 61,4 120,-4 179,-8 -2,-5 -16,-5 -21,-5 -8,-1 -18,-2 -26,-2 -9,0 -18,0 -27,0 -4,0 -9,0 -14,0 -6,0 -6,-1 -12,-1 0,-5 1,-5 -2,-8 -4,-6 -18,-7 -13,-13 4,-3 101,-1 116,-1l6 -1c-26,-2 -53,-6 -81,-7 -26,-1 -36,0 -60,-6 -3,-1 -5,-1 -9,-2 -5,-1 -5,0 -7,-3 10,-5 126,5 147,5 -2,-33 -5,-83 -27,-110 -8,-8 -19,-13 -27,-1 7,7 8,5 14,14 4,6 7,13 9,20 5,15 8,34 8,50 -4,-10 -3,-58 -27,-77 -7,-5 -9,-5 -17,-1l-5 3c10,13 14,17 19,38 3,11 7,36 6,48 -1,-19 -5,-46 -12,-62 -3,-7 -10,-19 -15,-21 -6,-2 -18,7 -26,9z"/>
   <path class="fil5" d="M664 879c-68,3 -137,4 -205,4l189 3c18,0 28,-2 45,1 6,1 9,0 13,3 -87,10 -229,6 -319,3 -48,-1 -103,-5 -151,-12 -51,-7 -88,-12 -130,-33 1,10 -2,56 1,60 0,-15 -1,-30 0,-46 9,4 16,8 26,12 2,-2 1,-3 3,-6 24,0 24,6 45,8l76 15c17,4 45,7 63,9l65 8c2,6 -4,-6 -1,2 12,0 5,2 24,2 0,0 -1,0 -1,1 0,0 -1,0 -1,0 -10,3 -14,0 -19,2 1,0 3,0 4,0 7,2 -5,-1 1,1l189 3 0 12c4,2 1,-3 5,2 4,4 0,3 7,4 -3,4 0,0 -4,3 3,1 3,-1 1,3 4,0 3,1 6,1l35 2c6,2 3,-1 4,5 -13,2 -26,2 -39,2 -12,0 -8,1 -14,2 1,5 2,4 1,7l-1 1c0,0 -1,0 -1,1l110 -2c7,-1 9,-3 14,1 5,3 1,4 15,4 -6,0 -2,0 -4,4 -9,0 -9,-1 -10,2 42,1 175,-17 208,-54 8,-9 5,-16 7,-30l-3 6c0,1 0,1 0,1 0,0 -1,1 -1,1 -2,3 -19,12 -22,14 -7,3 -31,12 -36,11 3,-1 4,-1 8,-2 6,-2 7,-2 8,-4 -3,-1 -1,-1 -3,-2l-4 -5c-3,-8 -8,-5 -8,-9 0,0 0,0 0,0 -22,-1 -15,-1 -17,-4 15,-4 28,-7 43,-12 25,-9 26,-14 35,-18l-1 -13c10,-6 21,-10 17,-30 0,-2 1,0 0,-3 -2,-3 -1,-1 -2,-2 1,13 -10,18 -19,23 -10,4 -21,8 -31,11 -59,15 -161,25 -221,27z"/>
   <path class="fil6" d="M3 624l2 -17c2,3 1,3 1,10l6 1c6,-2 -5,3 1,-1 2,-2 2,-5 3,0 1,4 -1,18 3,32 2,1 5,1 6,2 4,3 1,2 3,6l3 -31c0,-8 -1,-4 3,-5 3,6 -1,4 4,6 1,1 8,2 9,2 1,-2 1,-2 1,-3l1 -3 2 2c0,0 1,0 1,0l9 6c4,3 -1,0 3,1 3,1 4,3 6,5 0,1 1,2 1,2 3,4 0,1 3,3l1 1c4,3 3,2 7,3l8 5c3,1 7,1 11,1l1 2c1,1 0,1 1,2 2,3 1,1 2,2l13 8c15,1 7,4 15,4 2,-5 4,-6 8,-7 0,0 8,-27 10,-32 9,-26 27,-57 47,-77 2,-2 4,-3 5,-6 -2,-2 -26,-12 -31,-15 -10,-5 -20,-10 -30,-16 -10,-7 -19,-12 -29,-19l-26 -20c2,-4 1,-5 1,-9 1,0 1,0 1,0l2 1c1,0 1,0 1,1 2,0 2,0 4,0 -1,-5 0,-2 0,-8 -5,-3 -2,0 -4,-4 -3,-7 1,-3 -2,-4 2,-2 -1,0 2,-1l2 -2 -3 -4 4 -3c-3,0 -4,0 -7,-1 1,-3 1,-3 1,-6 -2,0 -4,-1 -6,-2l-2 -14c-1,0 -1,0 -1,0l0 -5c0,-4 1,-2 3,-3l6 -4c1,-1 3,-1 4,-2 -5,-3 -2,-4 -6,-5 1,-3 2,-3 3,-5 -5,0 -2,-1 -5,-2 -4,-3 -2,0 -5,-4 -3,-3 1,-8 -6,-6 3,-8 -3,7 2,-2 0,0 0,-1 0,-1 1,-1 0,-2 2,-5 -8,0 -7,-1 -7,5 -3,-2 -3,-1 -4,-6 -4,1 -2,2 -4,1 -2,-5 -2,-3 1,-7l-6 -4c-10,-14 -5,-4 -10,-10 -4,-5 -2,-10 -3,-13 -14,0 -5,-1 -14,-2l-1 86c-3,1 1,2 -1,-1 -3,-2 2,-1 -1,0 -2,4 -1,4 -4,5 -3,1 -5,-1 -6,-2l-3 -15c0,0 0,4 0,5 -13,-3 -5,4 -9,15 -5,17 -2,58 -3,78 0,36 -1,75 0,111z"/>
   <path class="fil7" d="M626 658c-21,10 -63,17 -89,18 4,-4 6,-2 12,-9 3,-3 5,-8 8,-12 5,-9 11,-20 14,-28 30,-1 18,2 31,2 -8,14 -25,34 -38,42 14,-5 28,-17 34,-25l18 -20c4,-3 25,-3 32,-4l-31 31c-1,1 -2,1 -3,2l-2 3c13,-3 36,-26 48,-38 4,-3 4,-4 11,-4 9,0 6,-1 13,-2 -2,3 -1,1 -3,3l-24 21c-7,7 -19,18 -31,20zm-356 -84c6,4 5,1 8,5 4,2 10,3 15,5 4,2 9,5 14,6 2,-3 1,2 0,-2 -1,-3 -2,1 -1,-2 7,1 23,5 29,8l0 -1c0,-1 0,-1 0,-1 0,-1 -4,-1 2,-2 8,0 26,-1 33,1 6,1 3,2 11,2l62 1c26,-1 52,2 77,4l31 1c13,2 6,3 30,3 -7,2 -13,20 -19,25 0,0 0,1 0,1 -3,8 -11,22 -16,31 -10,18 -8,19 -29,18l-7 0 -14 0 -5 -1 -6 0 21 3c3,5 2,6 4,11l1 3c2,7 22,3 28,2 5,0 8,0 11,-3l4 -3c4,-3 5,-2 6,-6 3,-8 0,-5 -1,-7l6 -2c6,8 7,16 6,26 -27,7 -49,7 -79,8l28 3c14,0 21,0 33,-4l1 0c4,12 -2,30 13,60 2,-4 13,-2 22,-2 8,0 16,0 25,1l96 4c16,1 33,4 48,3 -1,-35 -28,-104 -59,-127 -22,-16 -26,-3 -45,1 2,-3 0,0 3,-3l9 -6c6,-4 6,-4 15,-3 -2,1 -4,1 -3,-2 1,-4 -1,1 6,-5l14 -14c3,-2 3,-2 6,-4l3 -3c0,-1 0,-1 0,-1 1,-1 1,-1 2,-2l2 -2c3,-2 3,-1 5,-1 -6,1 -4,-1 -4,-2 6,0 8,0 13,1 -3,-6 0,-1 8,-5l8 -5c6,-3 5,0 12,-5l12 -7c2,-1 4,-1 5,-3 -6,5 1,-3 -2,0 4,0 6,-1 10,-1 0,0 4,-1 5,-1l3 -5c-61,13 -64,11 -122,17 -43,4 -89,5 -133,6 -41,1 -153,-4 -198,-9 -11,-1 -21,-2 -32,-3 -10,-1 -21,-4 -31,-5z"/>
   <path class="fil8" d="M13 875c3,16 17,40 24,51 13,19 18,24 34,39 22,23 54,42 93,53 42,13 92,9 137,9l438 0c51,0 87,3 134,-12 26,-9 79,-38 89,-57 -6,2 -4,1 -7,4 0,-5 2,-4 -4,-5 -1,6 2,2 -2,4 -1,-3 -2,-3 -3,-6 0,0 0,1 0,1l-2 2c0,0 -1,0 -2,0 0,0 0,0 0,0l-2 1c0,0 -1,0 -1,0 -2,1 0,2 -2,1 0,-2 7,-8 9,-9 9,-8 18,-20 26,-30 7,-10 22,-36 24,-51 -4,2 -5,1 -9,3 -6,21 -31,56 -47,70 -39,33 -80,52 -138,54 -52,2 -104,1 -155,1l-310 0c-48,0 -104,3 -150,-4 -29,-5 -58,-20 -81,-36l-21 -17c-23,-19 -53,-68 -56,-98l-3 -6c-3,3 -1,1 -4,2 3,12 6,24 9,36l-6 4c-3,2 -1,-1 -5,5 -5,-6 0,-6 -7,-9z"/>
   <path class="fil9" d="M195 907c2,-3 4,-6 4,-10 30,5 59,12 90,15 16,1 32,3 48,4 4,1 29,2 31,3l2 1c2,3 2,3 1,6 -2,3 0,2 -3,2l19 7c6,3 -2,0 4,2l13 4c6,3 7,0 14,3l3 1c2,1 1,1 4,1 6,0 7,1 12,1 2,1 4,1 6,2l3 2c0,0 0,1 1,1l-163 -8c-24,-1 -51,-7 -76,-11 -30,-6 -54,-17 -66,-19 1,0 1,0 1,0 0,0 1,-1 1,-1 0,0 1,0 2,0 19,-8 21,0 36,-5l13 -1zm-88 1c4,28 81,46 117,53 100,19 217,19 319,19 32,0 92,-1 123,-4 11,-1 31,-3 40,-3 1,-3 1,-2 10,-2 2,-4 -2,-4 4,-4 -14,0 -10,-1 -15,-4 -5,-4 -7,-2 -14,-1l-110 2c0,-1 1,-1 1,-1l1 -1c1,-3 0,-2 -1,-7 6,-1 2,-2 14,-2 13,0 26,0 39,-2 -1,-6 2,-3 -4,-5l-35 -2c-3,0 -2,-1 -6,-1 2,-4 2,-2 -1,-3 4,-3 1,1 4,-3 -7,-1 -3,0 -7,-4 -4,-5 -1,0 -5,-2l0 -12 -189 -3c-6,-2 6,1 -1,-1 -1,0 -3,0 -4,0 5,-2 9,1 19,-2 0,0 1,0 1,0 0,-1 1,-1 1,-1 -19,0 -12,-2 -24,-2 -3,-8 3,4 1,-2l-65 -8c-18,-2 -46,-5 -63,-9l-76 -15c-21,-2 -21,-8 -45,-8 -2,3 -1,4 -3,6 -10,-4 -17,-8 -26,-12 -1,16 0,31 0,46z"/>
   <path class="fil10" d="M893 704c2,13 4,29 5,43 0,8 0,36 2,42 -2,-29 -12,-116 -24,-139l-2 0c0,4 1,5 -1,7 -2,3 1,0 -2,1l-10 -1c-2,4 0,4 -4,5 8,34 15,70 14,107 -1,-3 -5,-44 -7,-53 -3,-17 -7,-32 -10,-48 -4,8 1,4 -12,12 -3,2 -11,7 -15,7 9,25 13,68 15,94 16,2 32,6 48,11 16,5 27,11 40,18 -2,-4 -1,-1 0,-2 7,1 5,2 7,3l3 0c0,0 0,0 1,0 10,-1 9,0 14,-5 -2,-4 0,0 -3,-3 -1,0 -1,-1 -1,-1 -4,-3 1,4 -1,-1 3,0 6,0 9,0l1 -1c1,0 1,0 1,-1l19 -7c6,-2 3,-3 15,-4 5,-1 3,-1 3,15 1,41 -9,53 -11,70 4,-2 5,-1 9,-3 -2,15 -17,41 -24,51 -8,10 -17,22 -26,30 -2,1 -9,7 -9,9 2,1 0,0 2,-1 0,0 1,0 1,0l2 -1c0,0 0,0 0,0 1,0 2,0 2,0l2 -2c0,0 0,-1 0,-1 1,3 2,3 3,6 4,-2 1,2 2,-4 6,1 4,0 4,5 3,-3 1,-2 7,-4 6,-2 20,-22 24,-28 8,-11 13,-19 19,-32 7,-15 24,-64 20,-83 -1,-10 0,-29 0,-41 0,-13 -1,-27 0,-40 0,-27 0,-54 -1,-80 -5,-5 0,1 -5,-1 -3,-1 -4,-3 -5,-5 0,0 0,0 0,0 -5,4 -3,11 -3,22 -1,8 -1,17 -2,26 -9,0 -5,-2 -11,-5l-2 -36c-1,2 1,4 -11,5 -6,1 -3,5 -8,4 0,-1 1,-1 1,-1 2,-3 6,-2 -5,-2 2,6 3,-3 2,4 -1,3 -3,3 -4,3 0,0 0,0 -1,-1l0 -2c0,0 0,-1 -1,-2 -3,4 -1,0 -3,5l-1 3c-3,4 -4,3 -5,3l-3 2c-5,2 -4,3 -10,5 -17,7 -17,8 -29,12l-16 7c0,0 0,0 0,1 0,0 -1,0 -1,0l-8 3z"/>
   <path class="fil11" d="M273 768c-2,12 -5,85 -1,92l72 7c12,1 25,1 37,1 6,1 14,2 20,2 3,0 4,0 8,0 2,0 3,0 5,0l4 -1c0,-6 0,-25 -2,-29l-1 -7c24,6 26,9 55,11 16,1 51,5 65,2 3,0 21,0 34,-2 41,-6 26,-11 40,-12 6,0 11,-2 17,-2 7,-1 23,-2 25,-8 -12,-7 -16,-4 -21,-7l-3 -2c9,0 19,0 26,1 8,2 12,2 14,7 1,1 1,3 2,4 -16,9 -42,8 -64,9l1 24c-9,11 -26,9 -40,14 38,0 114,-1 152,-5 7,-1 4,0 10,-2 3,-1 5,-1 8,-3l0 -5 -33 1c7,-3 8,2 12,-5 -2,-3 -4,-3 -8,-3 -4,0 -7,0 -10,0 6,0 5,0 7,-2l-33 1c1,0 1,0 1,-1 1,0 1,0 1,0l6 -1c3,-1 5,-1 8,-1 5,-1 10,-1 15,-1 -2,-7 -3,-4 -4,-7 7,0 10,-2 14,-3 9,-4 2,-6 11,-8l-4 -11c1,0 4,0 5,-1 1,0 1,0 1,0l3 -1c-1,-2 0,-2 -3,-3 -1,0 -19,-3 -22,-1l10 -1c-3,-6 -3,-3 -15,-6 -13,-2 -60,-6 -81,-10 -6,0 -27,-4 -30,-6l13 -1c0,0 -1,0 -1,0l-3 -1c-6,-2 -10,1 -16,-2 -4,-1 -1,-1 -5,-2 5,4 2,4 12,14 3,3 2,-2 3,5 -3,3 1,0 -3,3 -2,4 -31,12 -38,12 -14,1 -28,3 -44,3 -15,0 -29,-2 -44,-3 0,0 1,0 1,0 4,2 3,2 15,3 5,1 11,1 17,2 8,1 20,0 26,1 4,1 2,1 6,2 9,2 42,1 54,-1 7,0 8,0 8,-9l-41 5c5,-1 9,-3 14,-4 8,-1 41,-7 31,-18 5,2 8,6 10,10 8,14 13,20 -18,29 -23,6 -50,7 -77,6 -12,-1 -84,-4 -89,-14 -3,-4 -2,-13 0,-17 2,-7 20,-11 28,-13 3,-2 1,-1 5,-2 -23,2 -49,0 -74,2 -7,1 -8,1 -10,-1 30,-2 60,-3 92,-3 3,-5 5,-20 7,-26 -8,-4 -83,-2 -98,-2 -16,0 -78,5 -93,8 -3,-3 -3,4 -2,-5z"/>
   <path class="fil12" d="M144 305c-1,2 -3,4 -5,5 -6,1 0,0 -7,-4 -6,3 2,2 -5,2 -2,1 -4,-1 -6,1l-1 2c0,2 0,1 -1,2l-6 0c-1,1 -1,1 -1,1 0,0 0,2 -3,4 -10,-8 -21,-22 -33,-25 3,3 1,3 3,6 3,4 13,9 8,17 -1,2 0,1 -2,2l11 11 -4 7c0,0 0,0 0,1l0 1c0,0 -1,2 -1,2 -2,4 0,1 -2,4 -2,-3 0,-2 -4,-3 3,8 16,16 22,21 6,4 2,3 6,8l16 12c4,4 1,6 9,11 4,3 10,5 12,9 4,6 -3,1 11,10 9,6 7,7 10,11 4,3 9,4 12,9 2,5 -1,2 4,6 2,2 4,3 6,4 8,6 0,5 11,11 9,5 -1,3 11,10 13,8 5,6 13,11l3 3c8,8 5,3 12,10l10 10c5,3 2,0 6,5l2 -4c5,-31 3,-45 15,-83 9,-27 22,-42 45,-54l4 -3c-1,-3 -15,-17 -19,-21 -7,-8 -13,-14 -20,-22 -6,-7 -38,-39 -39,-44 -2,0 -5,-1 -7,0 -6,1 1,-1 -3,3 -3,3 -6,-2 -4,7 -3,-2 -3,-2 -8,0 4,6 -2,3 2,13 4,16 -5,24 -2,29 1,2 3,3 4,5 4,6 1,4 2,4 -3,4 -16,5 -21,6 -9,1 -3,-1 -7,-1 -1,-1 -8,0 -11,0 6,7 10,9 10,16 -6,1 -4,3 -10,-1l-48 -47z"/>
   <path class="fil13" d="M36 138c1,8 4,4 6,10l9 0c5,-11 31,-47 37,-49 5,-7 15,-15 22,-21 4,-3 21,-14 26,-15 3,-4 8,-6 13,-8 50,-21 67,-18 120,-20l77 -1 274 1c43,-1 171,-1 207,4 39,7 78,29 105,53 5,4 23,23 25,29 7,9 17,21 20,32l6 13 4 0c0,0 0,0 1,0 0,0 0,0 0,0l3 -4c3,5 7,7 8,-1 -1,-15 -20,-47 -28,-58 -12,-17 -27,-31 -43,-44 -30,-24 -80,-44 -130,-45l-553 0c-70,0 -114,15 -163,59 -13,10 -39,44 -46,65z"/>
   <path class="fil7" d="M831 559c5,8 17,13 35,47 4,9 8,20 11,30 3,7 7,28 10,31 1,-1 4,-1 1,-7l1 -4c0,0 0,0 0,0l2 -3c9,0 4,1 7,-1 6,-4 0,1 11,-4l3 -1c4,-1 2,-1 2,-6 5,0 4,-1 7,-2 13,-5 -5,5 12,-4 4,-2 4,-2 8,-2 -6,-5 -2,-15 9,-15l-1 -6c0,0 -1,-1 -1,-1 9,0 2,0 6,-4l8 -5c1,0 1,-1 1,-1l5 -2c7,-4 7,-2 10,-2 5,1 11,-1 15,-3 1,8 2,-2 3,15l1 0c0,7 -1,23 7,26 2,1 3,1 5,1l2 -27c0,0 0,0 0,0 0,0 0,0 0,0l5 -1c0,3 0,5 2,8l1 -8c1,-4 1,-4 2,-7 1,11 3,16 3,21 0,-12 2,-56 -1,-62 -1,0 -3,1 -4,6 0,3 1,3 1,7 -4,0 -5,-1 -10,-1 0,7 0,19 -2,24l-8 -4 -2 3c0,-37 -1,-74 -1,-110 0,-6 1,-101 -2,-107l-1 17c0,0 0,0 0,1 0,0 -1,0 -1,0 0,0 0,1 0,1 0,0 0,1 0,1 -2,16 -11,29 -21,41 -23,26 -63,57 -91,79l-47 33c-1,1 -2,1 -3,1 0,5 1,3 0,7z"/>
   <path class="fil14" d="M716 518l-21 -2c1,-19 -3,-53 -8,-72 -2,-11 -6,-21 -10,-30 -3,-5 -10,-13 -14,-16 -3,-2 -4,-2 -7,-4 11,-10 16,-13 30,2 31,34 28,77 30,122zm-12 -157c3,5 29,10 46,65 11,34 9,62 12,99l-19 -3c0,-33 0,-59 -9,-90 -4,-13 -8,-25 -14,-35 -3,-5 -7,-11 -10,-14 -4,-5 -8,-10 -15,-10 0,-1 0,-1 0,-1 1,0 1,0 1,0 6,-3 4,-2 6,-7 0,0 0,0 0,-1l2 -3zm-294 -36l-3 14c0,0 -1,1 -2,1 -1,0 -2,0 -2,1 -1,0 -3,0 -4,0 -4,0 -7,0 -11,1 1,-19 9,-46 17,-62 7,-15 23,-37 41,-27 -1,1 0,1 -2,2 0,0 -1,1 -2,1 -1,1 -3,2 -4,3 -16,13 -26,49 -28,66zm-42 18c6,-17 5,-37 19,-65 5,-10 11,-18 19,-25 9,-8 19,-12 30,-7 -4,3 -9,4 -13,6 -24,16 -32,65 -36,90 -4,1 -16,3 -19,1zm115 -135c-4,2 -34,2 -40,2l-34 4c-9,3 -20,0 -15,13 -25,11 -33,16 -45,47 -8,18 -16,55 -17,76 1,-1 1,-1 2,-3l7 -39c8,-32 13,-45 33,-66 2,-2 11,-7 15,-9 8,-3 14,-3 20,1 -10,7 -25,6 -41,43 -7,14 -16,51 -17,67 5,-9 7,-44 20,-69 4,-6 6,-9 9,-15 3,-3 2,-2 6,-6 6,-5 5,-6 11,-10 3,-2 4,-3 7,-4 9,-4 11,-3 19,0 -3,2 -5,2 -9,4 -8,3 -10,7 -16,12 -21,19 -28,86 -30,87 -1,2 -18,4 -23,6 -15,3 -16,1 -15,12 12,22 157,22 176,22 37,-1 107,-2 144,-5 15,-2 30,-4 44,-6l-3 2c-1,1 -2,1 -3,2 9,-2 10,2 15,7 5,5 7,8 12,14 19,30 31,92 26,124l-24 -2c-1,-9 0,-28 0,-38 -1,-31 -7,-64 -27,-86 -20,-23 -26,-9 -34,-3 -28,18 -43,23 -62,34 8,-2 20,-11 26,-9 5,2 12,14 15,21 7,16 11,43 12,62 1,-12 -3,-37 -6,-48 -5,-21 -9,-25 -19,-38l5 -3c8,-4 10,-4 17,1 24,19 23,67 27,77 0,-16 -3,-35 -8,-50 -2,-7 -5,-14 -9,-20 -6,-9 -7,-7 -14,-14 8,-12 19,-7 27,1 22,27 25,77 27,110 -21,0 -137,-10 -147,-5 2,3 2,2 7,3 4,1 6,1 9,2 24,6 34,5 60,6 28,1 55,5 81,7 12,1 61,7 59,17 -1,8 -1,2 2,5 7,-2 16,3 19,3 -1,0 1,-2 -1,1 -1,2 0,0 -1,4 5,-1 17,-4 21,-7 3,-3 1,-3 7,-5 -3,7 -4,5 -1,10 15,8 32,24 41,38 8,12 22,39 26,55 12,23 22,110 24,139 -2,-6 -2,-34 -2,-42 -1,-14 -3,-30 -5,-43l-6 -37c-3,-3 -7,-24 -10,-31 -3,-10 -7,-21 -11,-30 -18,-34 -30,-39 -35,-47 -9,-4 -28,-21 -29,-22 -16,-9 -34,-9 -40,-13l1 -42c-2,-3 -4,-32 -6,-40 -2,-13 -6,-24 -10,-36 -9,-21 -22,-44 -44,-48 -10,-1 -16,-7 -43,-11 -60,-10 -42,5 -50,-34 -2,-9 -4,-17 -6,-25 -5,-15 -15,-32 -29,-35l-2 3 4 2c28,8 33,71 38,83l-62 -2 -5 -1c0,1 0,1 0,1 0,0 0,1 0,1 0,0 0,1 0,1 0,0 0,1 0,2 13,4 17,3 33,5 18,1 84,7 93,14 -42,13 -220,11 -280,4 -6,-1 -11,-1 -18,-2 -8,-2 -13,-2 -15,-7 14,-11 91,-8 113,-13l-5 4c1,1 3,1 4,2 11,5 15,-4 20,-3 6,2 1,4 6,4 5,-10 0,-9 -8,-10 -2,0 -7,-1 -8,-1l-8 -2c-5,0 -64,3 -67,1l2 -14c4,-10 6,-26 16,-45 4,-9 21,-32 31,-19 -6,7 -7,5 -12,15 -8,17 -12,42 -16,59 1,-9 8,-32 11,-42 8,-24 12,-23 20,-31l1 -1c7,6 26,13 37,10 11,-1 25,2 34,-2 -2,-1 -4,-1 -5,-1 -3,-2 0,0 -3,-2 -6,-3 -5,-1 -12,0 0,-23 -12,-13 -27,-18 -6,-2 -7,-2 -13,-2l-2 5c-9,-2 -17,-4 -25,-7 2,3 2,1 3,7 -8,-3 -20,-12 -23,-13 -4,0 -4,1 -7,-2 -6,-1 -7,-4 -16,-9 8,0 18,1 27,2 9,0 18,1 28,1 34,1 155,-3 169,-2l-6 2c7,0 12,-1 13,-7 0,-1 1,-1 1,-1 15,3 31,25 38,39 4,10 18,51 16,61 2,-4 -4,-31 -6,-39 -11,-40 -27,-63 -69,-70l-22 -2c-4,-1 -46,-4 -51,-3 -3,1 -1,0 -3,1 6,3 26,3 35,4 11,1 23,2 34,4 -1,1 -1,2 -7,3 -2,0 -4,0 -6,0 -5,0 -10,1 -15,1 -10,1 -20,1 -30,1l-1 -6c-2,-2 -5,-2 -7,-3 -11,-4 4,-3 -15,-4 -6,-1 -13,-1 -20,-1 -13,0 -6,0 -15,4l-7 -4z"/>
   <path class="fil15" d="M244 192c-5,2 1,0 -2,0 -5,0 -1,1 -7,2l-7 0c-13,0 -4,2 -12,2l-9 1c0,0 0,-1 -2,-1 -5,0 -4,2 -5,0 0,-1 -1,0 -1,-1l0 4 10 9c4,2 3,2 6,5 7,8 33,31 35,39 -5,0 -9,-1 -12,-3 -3,1 -3,3 -5,3l1 2c4,6 4,3 9,11l3 4c0,0 0,0 0,0l1 2c1,5 33,37 39,44 7,8 13,14 20,22 4,4 18,18 19,21l3 -3c1,2 0,0 1,2 1,2 0,2 1,4 -1,-11 0,-9 15,-12 5,-2 22,-4 23,-6 2,-1 9,-68 30,-87 6,-5 8,-9 16,-12 4,-2 6,-2 9,-4 -8,-3 -10,-4 -19,0 -3,1 -4,2 -7,4 -6,4 -5,5 -11,10 -4,4 -3,3 -6,6 -3,6 -5,9 -9,15 -13,25 -15,60 -20,69 1,-16 10,-53 17,-67 16,-37 31,-36 41,-43 -6,-4 -12,-4 -20,-1 -4,2 -13,7 -15,9 -20,21 -25,34 -33,66l-7 39c-1,2 -1,2 -2,3 1,-21 9,-58 17,-76 12,-31 20,-36 45,-47 -5,-13 6,-10 15,-13l-22 -40c-2,-5 -3,-11 -9,-8 -1,2 -1,-1 -1,4 0,4 6,10 9,20 -5,0 -3,1 -8,1 -5,-7 -13,-19 -17,-26l-10 0c3,10 14,22 14,32 -5,0 -10,-10 -13,-14 -4,-6 -7,-10 -11,-15 -4,2 -9,1 -13,1 -8,2 -7,5 -8,7 -2,3 -8,4 -13,6l-5 4c0,0 0,0 0,0 -1,0 -2,2 -2,2 -1,1 -3,3 -3,4 -4,6 6,11 7,20 0,0 0,0 -1,0 0,-1 0,-1 -1,-1 0,0 -1,-1 -1,-1 -2,-1 -1,-1 -3,-1 -7,-2 -12,4 -12,5 -4,4 -5,2 -11,3 -7,2 -5,7 -21,-11 -3,-3 -9,-9 -10,-14z"/>
   <path class="fil16" d="M730 89l-11 20c6,0 4,0 11,1l13 -18c4,5 3,3 9,2 5,-1 20,-3 25,0l2 2c3,1 2,-1 3,1 0,0 1,1 1,1l0 1c6,0 14,2 19,3 0,0 0,0 0,0 0,3 4,-1 -4,10 -29,37 -20,29 -10,31 1,2 -3,1 1,4 12,9 1,3 7,9l8 5c2,-2 5,-4 15,-14l21 -24c2,-1 2,-2 3,-3 3,-4 4,-4 13,-3 6,0 7,0 12,1 -4,1 -1,1 -6,1 -8,1 -4,-1 -6,4 13,-1 35,-2 41,0l-26 29c-7,7 -2,10 3,10l20 -23c9,1 7,2 15,1 0,0 0,0 0,0 8,0 -1,0 7,-2l4 5c20,-1 9,-6 20,-10 0,1 0,1 0,1l0 2c0,0 0,0 0,0 1,2 0,1 1,3 8,-3 14,-7 13,-15 0,-1 -1,-3 -1,-5 1,1 3,1 4,2 -2,-6 -20,-25 -25,-29 -27,-24 -66,-46 -105,-53 -36,-5 -164,-5 -207,-4 5,2 7,1 18,1l52 1c-2,2 -26,47 -28,52 7,0 13,1 19,0 10,-1 6,-1 12,-7 1,1 5,4 6,4 1,0 4,-1 5,-2 3,-1 6,-7 8,-10 2,1 4,2 7,1 6,-1 1,-1 4,-1 5,-2 8,2 15,2l-8 13z"/>
   <path class="fil4" d="M594 426c19,-11 34,-16 62,-34 8,-6 14,-20 34,3 20,22 26,55 27,86 0,10 -1,29 0,38l24 2c5,-32 -7,-94 -26,-124 -5,-6 -7,-9 -12,-14 -5,-5 -6,-9 -15,-7 1,-1 2,-1 3,-2l3 -2c-14,2 -29,4 -44,6 -37,3 -107,4 -144,5 -19,0 -164,0 -176,-22 7,15 49,20 70,22l86 4c-29,0 -57,-1 -86,-2 -13,-1 -27,-3 -40,-5l-13 -4c-7,-1 -21,8 -26,13 -2,2 -3,3 -5,6 -19,16 -28,60 -31,83 -2,15 -2,27 -3,43l27 -3c-1,-38 2,-102 34,-126 17,-13 21,-11 41,-5 -4,2 -5,0 -10,0 -10,-2 -21,4 -29,10 -29,20 -36,87 -36,121 8,-1 16,-2 25,-2l24 -3c-1,-32 3,-69 19,-95 8,-12 15,-13 21,-18 -3,-2 -5,-4 -8,-7 -23,-1 -36,23 -43,42 -12,32 -10,65 -13,72 -1,-38 11,-114 47,-117l77 4c27,1 54,2 81,2l-5 13c-4,15 -4,9 -1,14 5,-4 5,-8 8,-13l19 1c-2,6 -8,9 -4,11 4,2 8,-4 12,-9 3,2 7,1 12,1 0,4 -1,4 -3,6l-5 5c14,0 18,-12 25,-8 -3,6 -5,0 -9,10l6 -1z"/>
   <path class="fil17" d="M448 530c3,6 12,8 21,8 -3,6 1,23 2,29 -2,2 2,1 -3,2 -30,-3 -63,-3 -93,-5 -30,-1 -58,-7 -86,-10l-1 3c0,0 0,0 0,0 -1,6 3,8 5,10l1 1c-9,2 -41,-5 -51,-9 -7,-2 -12,-3 -18,-5 8,15 49,19 61,21 48,9 100,7 149,12 14,1 25,0 39,1 68,3 149,0 215,-6l36 -3c27,-4 48,-7 75,-17 4,-2 5,-1 4,-3 4,-3 1,-2 5,-2 -3,-5 -2,-3 1,-10 -6,2 -4,2 -7,5 -4,3 -16,6 -21,7 1,-4 0,-2 1,-4 2,-3 0,-1 1,-1 -3,0 -12,-5 -19,-3 -3,-3 -3,3 -2,-5 -15,9 -47,12 -66,14 -59,4 -118,12 -179,8 -2,-4 -2,-5 -3,-9l-44 -4c5,1 8,1 14,0 -1,-17 -1,-13 2,-13 -2,0 -1,-3 -2,2l0 12c11,2 44,2 55,-1 0,-4 1,-11 -3,-14 14,-1 30,-4 41,-8 2,-9 3,-7 -4,-11 -6,-5 -21,-8 -26,-6 -1,-6 -6,-20 -7,-26 -2,-11 -2,-20 -4,-31l3 -1c4,-1 -2,1 2,0 6,-2 5,-4 3,-10 -7,0 -4,-2 -7,9 -13,-1 -28,1 -39,0 -6,-1 -7,-3 -9,-1 9,0 24,1 33,-2 0,0 0,0 1,0l2 -1c0,-1 1,-1 1,-1l-38 -2c0,0 -1,1 -1,1 0,-1 -1,0 -1,0 2,4 2,-1 -4,-2l-1 8c9,4 40,1 52,1l1 17c2,30 3,25 6,49 5,0 6,-1 8,-3 0,6 0,5 -5,7 -14,3 -47,3 -59,-1 11,1 38,1 48,-2 -1,-5 -6,-13 -8,-26 -1,-7 -1,-3 -3,-8 -1,-3 -1,-6 -2,-10 -9,-27 -2,-7 -11,-20l-20 -3c-1,19 -2,39 -7,57 -2,-1 -17,2 -21,2 -8,1 -14,4 -13,13z"/>
   <path class="fil18" d="M765 839c-2,-6 -1,-28 -1,-37 10,4 30,3 42,7 8,3 0,1 7,5 0,1 2,2 3,3 12,7 13,9 7,18l8 4c0,8 0,10 4,13l3 1c-22,3 -49,12 -74,11l0 -20c13,-2 51,-7 57,-15 -2,-7 -14,-10 -23,-11 0,0 0,0 1,1 0,2 12,5 -10,13 -8,3 -16,5 -24,7zm59 -147c8,17 16,69 17,89l-36 -4c-3,-11 -3,-22 -5,-33 -2,-8 -6,-24 -6,-31 -2,-3 -9,-28 -12,-35 -3,-10 -9,-23 -14,-31 -3,-5 -6,-10 -9,-14 -10,-16 -17,-24 -34,-33 -5,-1 -7,-1 -13,-1 0,1 -2,3 4,2 16,6 19,11 28,20 6,6 14,17 18,26 8,5 26,56 29,70 3,6 12,53 10,59l-39 -1c-3,-7 -6,-27 -8,-36 -3,-12 -7,-23 -11,-34l-11 -24c-1,-3 -2,-4 -3,-7 -4,-9 -12,-18 -19,-24 -5,-4 -4,-6 -12,-10 -5,-3 -10,-4 -17,-5 -9,-1 -9,-1 -15,3l-9 6c-3,3 -1,0 -3,3 19,-4 23,-17 45,-1 31,23 58,92 59,127 -15,1 -32,-2 -48,-3l-96 -4c-9,-1 -17,-1 -25,-1 -9,0 -20,-2 -22,2 -15,-30 -9,-48 -13,-60 -9,21 4,59 19,77l14 19c4,-3 0,0 3,-3 -1,-7 0,-2 -3,-5 -10,-10 -7,-10 -12,-14l-6 -12c6,4 25,2 35,2 12,0 25,1 37,2 12,0 24,1 36,2 5,0 11,0 17,1l13 0c7,2 3,1 5,3 -14,1 -29,1 -45,1 -13,-1 -34,-4 -43,2 4,1 16,1 20,3 3,2 16,1 21,5l-25 0c10,4 43,5 57,6 21,1 42,3 62,3 3,8 4,34 2,42l-20 4c3,3 17,-2 22,1l1 18c-12,1 -95,10 -98,9 1,3 -1,5 -2,6 60,-2 162,-12 221,-27 10,-3 21,-7 31,-11 9,-5 20,-10 19,-23 -2,-5 -4,-5 -5,-8 -13,-7 -24,-13 -40,-18 -16,-5 -32,-9 -48,-11 -2,-26 -6,-69 -15,-94 -14,-35 -8,-34 -29,-68 -6,-9 -4,-6 -9,-11 -5,-6 -12,-15 -21,-18 5,7 10,8 18,21 19,27 29,45 38,81z"/>
   <path class="fil19" d="M377 92c7,-2 12,-5 21,-5 0,-1 -1,-1 -1,-1l-2 -2c4,-3 -2,3 3,-6l1 -1c0,0 0,-1 0,-1l2 -1c1,4 5,9 8,13 5,0 9,-1 13,-2 -1,-7 -3,-10 -4,-15 -1,-1 -4,-10 -4,-11l15 0c-1,-5 -8,-19 -10,-24 12,-2 33,1 47,0 5,0 41,-3 43,2l-8 0c0,6 -2,17 0,22l8 1c0,11 -1,8 2,12 3,-1 2,-1 3,0l2 1c4,0 6,1 7,-14l13 0 -1 15c7,0 19,0 23,-2 0,7 -1,7 0,15 8,0 11,-2 18,-3 10,-2 8,0 12,-9 3,2 8,1 14,1 -1,7 -5,16 -7,22 2,1 1,2 9,2 0,-2 0,-1 1,-3l3 -3c6,3 6,4 3,11 2,1 1,-1 5,2 2,1 1,2 6,3l0 -3c8,4 2,1 4,6l7 0c0,0 0,0 0,0l1 3c14,0 11,0 0,22 0,0 0,0 0,0l-2 3c-2,4 -7,4 -8,17 12,9 15,9 23,-4 4,-9 12,-18 16,-26 4,3 2,2 6,2l7 1 9 -9c1,1 0,1 2,1 9,3 13,1 17,2 3,-5 6,-8 9,-13 -3,3 -8,1 -10,-2 -5,-3 2,0 -8,-5l-6 3c-2,-1 -1,-1 -2,-2 -5,-3 -4,-1 -8,-3 1,-7 5,-6 6,-14 5,1 9,2 12,4 3,-3 3,-4 6,-7 6,0 8,1 14,1 21,-1 4,0 13,1l8 -13c-7,0 -10,-4 -15,-2 -3,0 2,0 -4,1 -3,1 -5,0 -7,-1 -2,3 -5,9 -8,10 -1,1 -4,2 -5,2 -1,0 -5,-3 -6,-4 -6,6 -2,6 -12,7 -6,1 -12,0 -19,0 2,-5 26,-50 28,-52l-52 -1c-11,0 -13,1 -18,-1l-274 -1c0,4 1,5 3,7 12,16 23,48 28,51z"/>
   <path class="fil20" d="M694 143l-9 12c-3,5 -5,8 -8,14 0,0 0,4 5,1l-4 6c0,0 4,1 5,1 7,-1 1,-5 11,-3 1,2 1,0 0,2 0,0 0,0 0,0l-1 2c7,0 5,1 9,4 7,4 7,2 10,3 2,1 3,4 11,6 2,1 1,0 3,1l3 4c0,0 1,0 1,0l-23 32c3,1 4,1 6,-1 4,7 -1,2 6,6 6,2 4,1 6,6 14,1 8,-5 15,-2 6,2 -4,-1 3,1 3,-3 4,-4 13,-4 1,0 -1,-1 2,0 1,3 -2,5 -3,6l-14 20c8,5 13,1 23,1 -2,5 1,0 -4,5 1,0 3,-1 4,0 3,0 -2,-3 3,1 -5,7 -15,18 -17,22l14 0c2,-4 20,-23 24,-27 3,-5 11,-12 15,-17 9,-10 6,-9 23,-9l1 -6 5 0c6,1 2,1 6,2 6,1 2,-1 6,0 7,1 1,5 16,2 5,-1 4,-4 5,0 0,2 -2,2 -3,4 13,0 3,0 13,3 0,0 0,0 0,0 1,0 1,0 1,0 0,0 1,0 1,1l21 -25c-3,-2 -10,-3 -14,-6 -3,-3 -8,-2 -15,-1 0,-6 1,-8 -5,-9 -2,-1 -11,-2 -12,-2 6,-1 2,2 3,-3 -6,-3 0,-3 -7,-3 -5,4 -15,15 -20,20 -2,-1 -5,-1 -9,-2 5,-8 31,-34 39,-47 -5,0 -3,1 -7,1 -7,-2 -2,-2 -6,-3 -3,0 -7,2 -13,0 -3,-1 -6,-4 -15,0 -8,3 -4,1 -9,0 -30,34 -15,22 -35,25 -6,1 -20,1 -27,-2 0,0 -1,0 -1,0 0,0 0,0 0,0 -1,-6 -1,-7 3,-11l5 -6c-2,-3 -1,-2 -3,-3l-2 -1c0,-10 0,-8 4,-14 1,-1 1,-2 2,-4l17 0c1,-4 0,0 1,-2l3 -5c-6,0 -7,1 -12,1 -3,0 -18,-2 -22,-5 -4,-3 -1,-3 -9,-3 0,-4 0,-2 1,-5 -1,0 -3,1 -3,1 -4,0 -5,-2 -8,-5 0,3 -9,13 -11,17 -3,4 -7,11 -14,7 -4,-2 -2,0 -3,-4z"/>
   <path class="fil15" d="M613 213c42,7 58,30 69,70 2,8 8,35 6,39 -1,9 3,17 3,26 8,3 -3,-3 3,1 14,8 6,2 13,5 5,-3 10,-11 15,-16 3,-3 4,-5 7,-8 3,-4 5,-5 7,-8 3,-7 0,-1 5,-5 1,-2 1,-2 3,-4 2,-4 18,-19 20,-24l-14 0c2,-4 12,-15 17,-22 -5,-4 0,-1 -3,-1 -1,-1 -3,0 -4,0 5,-5 2,0 4,-5 -10,0 -15,4 -23,-1l14 -20c1,-1 4,-3 3,-6 -3,-1 -1,0 -2,0 -9,0 -10,1 -13,4 -7,-2 3,1 -3,-1 -7,-3 -1,3 -15,2 -2,-5 0,-4 -6,-6 -7,-4 -2,1 -6,-6 -2,2 -3,2 -6,1l23 -32c0,0 -1,0 -1,0l-3 -4c-2,-1 -1,0 -3,-1 -8,-2 -9,-5 -11,-6 -3,-1 -3,1 -10,-3 -4,-3 -2,-4 -9,-4l1 -2c0,0 0,0 0,0 1,-2 1,0 0,-2 -10,-2 -4,2 -11,3 -1,0 -5,-1 -5,-1l4 -6c-5,3 -5,-1 -5,-1 3,-6 5,-9 8,-14l9 -12c-3,-1 -16,-5 -18,-7 -4,7 -8,14 -13,21 -5,9 -8,16 -20,11 -5,4 -26,38 -30,45z"/>
   <path class="fil21" d="M863 177l-15 16c7,0 1,0 7,3 -1,5 3,2 -3,3 1,0 10,1 12,2 6,1 5,3 5,9 7,-1 12,-2 15,1 4,3 11,4 14,6l-21 25 -24 28c0,0 -1,-1 1,1l2 2 4 -5c3,1 3,1 6,3 3,1 1,0 4,1 5,3 9,0 19,-1 0,1 0,1 0,1 0,0 2,4 5,4 6,-1 0,-3 9,-1 5,2 19,-1 24,-2 -2,4 -32,38 -34,38l11 -1c0,0 0,0 1,-1l3 2c3,4 -2,-2 1,2l5 -6c3,-6 85,-81 82,-83l2 82 11 -7 2 -81c0,-9 -5,-50 -12,-57 -1,8 -5,6 -8,1l-3 4c0,0 0,0 0,0 -1,0 -1,0 -1,0l-4 0 -6 -13 -3 0c0,4 0,6 1,9 0,2 1,6 1,7 0,5 -5,3 1,10 -3,3 -3,3 -4,6 -1,3 -2,4 -3,7 -1,-1 1,1 -2,-1 -2,-1 -1,-1 -3,-2 -4,4 -6,4 -7,6l-2 4c-7,7 -4,10 -22,10l0 -2c0,0 0,-1 0,-1 0,0 0,0 0,0 -4,-1 -3,-1 -6,-2 -1,2 1,5 -5,5 -3,0 -6,-1 -9,-2 -4,1 -1,-1 1,3 -5,1 -2,1 -8,0 3,-4 24,-28 26,-29 -6,-5 -12,-2 -20,-1 0,-1 0,-1 0,-1l-1 -3c-3,2 -2,1 -6,1l-2 -2c0,0 0,0 0,0 0,0 -1,-3 -12,1 -3,1 -4,1 -6,2 -10,2 -7,-2 -12,-1 0,0 -1,4 -11,0z"/>
   <path class="fil22" d="M35 201c3,6 91,85 99,94l5 0c2,-5 -1,-1 3,-6 -4,-3 -31,-32 -33,-36 4,0 6,0 9,0 9,-1 -2,1 7,1 3,1 3,1 4,0 3,-1 9,-4 10,-6 4,5 0,0 9,4 3,2 13,1 14,0 5,-2 -3,2 1,0 2,-2 1,-1 2,-2 -3,-8 -13,-14 -17,-22 3,0 6,0 9,0 7,1 0,2 7,1l10 -2c9,-3 5,-1 14,-2 5,-1 0,-1 5,-3 10,-4 11,2 16,7 3,3 1,1 4,3 2,2 3,3 4,5 8,10 6,5 11,11l5 4c2,0 2,-2 5,-3 3,2 7,3 12,3 -2,-8 -28,-31 -35,-39 -3,-3 -2,-3 -6,-5 -1,4 -1,7 -6,7 -5,0 -13,-9 -17,-14l-37 -37c-3,-4 -2,-4 -5,-3 -9,0 -9,1 -16,-2 -6,-2 -6,-4 -12,-1 -5,3 0,3 -8,0 -7,-3 -5,6 -9,-3l-5 6c-3,3 -4,3 -7,4 8,9 11,9 12,17 -6,-1 -7,-1 -10,-4 -5,-5 -3,-6 -3,-6 -2,1 -5,-2 -5,-2l-4 -1c-1,0 -3,0 -4,0 2,-2 -4,-3 4,-2 -2,-1 -1,-1 -3,-2 -7,-5 -10,-2 -14,-1l-3 -8c-3,-3 0,0 -3,-2 0,0 -1,0 -1,0l-1 -1c-4,-3 3,-1 -1,-1 -5,8 -15,39 -16,49z"/>
   <path class="fil10" d="M3 729c0,7 2,16 0,23 -2,11 -1,54 0,68 0,14 5,44 10,55 7,3 2,3 7,9 4,-6 2,-3 5,-5l6 -4c-3,-12 -6,-24 -9,-36 3,-1 1,1 4,-2l3 6 0 -12c-6,-8 -2,-60 -1,-72l2 0c0,-1 0,-1 0,-1 0,0 1,0 1,0l0 -2c6,0 3,0 6,4 4,-1 6,-2 12,2l3 4c7,0 7,-1 10,-2l11 5 5 5c0,1 -1,1 -1,1 -4,0 -3,-1 -5,-1 2,5 11,1 18,3 5,2 9,2 16,-3l-7 -2c2,-1 9,0 12,-1 3,5 -2,5 5,5 5,0 1,-2 6,-4l2 4c8,8 4,7 7,9 0,-14 -1,-27 0,-41 0,-12 2,-25 3,-38 -3,1 -2,-2 -3,5 -1,-2 -1,-1 -2,-6 -1,6 2,2 -3,4l-6 -4c-3,-2 0,-1 -4,-2 -5,0 -8,-1 -14,-1 0,-1 1,-4 1,-5 -3,1 -5,3 -8,2l-12 -6c-2,-1 -3,-1 -4,-1 -19,-6 -6,-7 -21,-12 0,0 0,0 0,0l-2 0c-6,-2 -7,-1 -8,1 -2,1 2,-1 -3,2l-8 -2c0,0 -3,-3 -8,-2l-2 46c-6,-3 -5,0 -8,-1 -4,-1 -1,-1 -4,-6 -5,0 -6,0 -9,-2 0,1 0,4 0,4 0,3 1,1 -1,3 1,3 0,-1 0,-1l-2 7z"/>
   <path class="fil23" d="M575 781c4,1 1,1 5,2 6,3 10,0 16,2l3 1c0,0 1,0 1,0l-13 1c3,2 24,6 30,6 21,4 68,8 81,10 12,3 12,0 15,6l-10 1c3,-2 21,1 22,1 3,1 2,1 3,3l-3 1c0,0 0,0 -1,0 -1,1 -4,1 -5,1l4 11c-9,2 -2,4 -11,8 -4,1 -7,3 -14,3 1,3 2,0 4,7 -5,0 -10,0 -15,1 -3,0 -5,0 -8,1l-6 1c0,0 0,0 -1,0 0,1 0,1 -1,1l33 -1c-2,2 -1,2 -7,2 3,0 6,0 10,0 4,0 6,0 8,3 -4,7 -5,2 -12,5l33 -1 0 5c-3,2 -5,2 -8,3 -6,2 -3,1 -10,2 -38,4 -114,5 -152,5 14,-5 31,-3 40,-14l-1 -24c22,-1 48,0 64,-9 -1,-1 -1,-3 -2,-4 -2,-5 -6,-5 -14,-7 -7,-1 -17,-1 -26,-1l3 2c5,3 9,0 21,7 -2,6 -18,7 -25,8 -6,0 -11,2 -17,2 -14,1 1,6 -40,12 -13,2 -31,2 -34,2l0 4 -31 2c0,4 4,8 6,11 3,6 5,5 9,8 -11,0 -51,3 -59,-1 -2,-2 -1,-3 0,-9 0,-4 0,-7 0,-11 -14,-5 -29,-4 -44,-10 2,4 2,23 2,29l-4 1c-2,0 -3,0 -5,0 -4,0 -5,0 -8,0 -6,0 -14,-1 -20,-2 -12,0 -25,0 -37,-1l-72 -7 0 6c22,7 164,11 192,11 34,-1 67,0 100,-1 32,-1 70,0 102,-3 3,1 86,-8 98,-9l-1 -18c-5,-3 -19,2 -22,-1l20 -4c2,-8 1,-34 -2,-42 -20,0 -41,-2 -62,-3 -14,-1 -47,-2 -57,-6l25 0c-5,-4 -18,-3 -21,-5 -4,-2 -16,-2 -20,-3 9,-6 30,-3 43,-2 16,0 31,0 45,-1 -2,-2 2,-1 -5,-3l-13 0c-6,-1 -12,-1 -17,-1 -12,-1 -24,-2 -36,-2 -12,-1 -25,-2 -37,-2 -10,0 -29,2 -35,-2l6 12z"/>
   <path class="fil24" d="M389 114l2 9c-5,2 -7,1 -14,3 -5,1 -3,-1 -5,2 -5,-1 -1,-1 -2,1 -3,4 0,1 -5,3 -1,-1 -8,-13 -9,-14 -4,1 -1,0 -6,7 1,4 3,5 4,9 -13,1 -5,2 -12,-5 -2,-2 -11,-3 -15,-3 2,5 5,7 6,14 -4,0 -4,1 -8,1l-9 -14c-3,6 -8,5 -14,6 -8,2 -16,3 -23,7 -10,6 -7,1 -15,7 -2,1 -4,2 -5,3 5,3 10,14 14,17 3,2 8,2 11,5 2,3 8,28 -16,26 -7,-1 -7,0 -11,-3 -5,-4 -4,-2 -13,-3 1,5 7,11 10,14 16,18 14,13 21,11 6,-1 7,1 11,-3 0,-1 5,-7 12,-5 2,0 1,0 3,1 0,0 1,1 1,1 1,0 1,0 1,1 1,0 1,0 1,0 -1,-9 -11,-14 -7,-20 0,-1 2,-3 3,-4 0,0 1,-2 2,-2 0,0 0,0 0,0l5 -4c5,-2 11,-3 13,-6 1,-2 0,-5 8,-7 4,0 9,1 13,-1 4,5 7,9 11,15 3,4 8,14 13,14 0,-10 -11,-22 -14,-32l10 0c4,7 12,19 17,26 5,0 3,-1 8,-1 -3,-10 -9,-16 -9,-20 0,-5 0,-2 1,-4 6,-3 7,3 9,8l22 40 34 -4c-6,-3 -35,-59 -36,-64l15 -2c0,-3 -2,-7 8,-9l5 8c1,0 2,-2 8,-2l0 -4c-1,0 -1,0 -1,-1l-9 -27c0,-5 1,-4 8,-5 -4,-21 -8,-18 15,-18 1,3 3,4 1,6l6 -2c9,-2 10,2 17,2l1 -7c18,0 10,-2 17,-2 3,1 2,-1 4,2 4,-2 3,-1 5,-5l-5 0 -4 -6c-3,2 -14,1 -16,1 -3,-1 -2,1 -3,-2l1 12c-32,0 -25,-1 -28,-8 -20,-1 -16,-4 -17,4l-5 3c-4,-1 0,-2 -6,0 1,8 5,12 6,22 -8,0 -9,2 -12,3l-3 -6 -26 11z"/>
   <path class="fil25" d="M300 689c-12,17 -23,53 -27,79 -1,9 -1,2 2,5 15,-3 77,-8 93,-8 15,0 90,-2 98,2 2,-7 4,-21 5,-29 2,-14 0,-18 -2,-32 0,0 -4,4 0,-1 2,-3 -1,-1 1,0l-13 -4c0,-9 1,-21 9,-26l-6 -2c-2,0 -1,1 -3,-1 -13,1 -24,-4 -35,-7 2,3 4,4 6,9 5,10 27,69 20,78l-11 -36c-3,3 0,1 -5,2 -7,2 -15,3 -23,0l-2 -1c-2,-1 -1,0 -2,-1 -6,-3 -2,-4 -11,-4l11 26c2,3 4,6 2,9 -5,-2 -3,-3 -7,-10 -2,-3 -4,-8 -6,-11 -5,-8 -10,-15 -14,-21 -4,2 -7,0 -10,-2 -5,-3 0,-2 -7,-3 -3,-1 -4,-1 -7,-1 -2,5 -4,7 -6,9 -9,0 -3,-5 -9,-2 -1,2 22,32 24,36 2,4 7,9 8,13 -13,0 -8,2 -25,-17 -7,-9 -44,-42 -48,-49z"/>
   <path class="fil26" d="M769 357c0,0 7,-6 8,-13 1,-4 0,-5 3,-7 3,-2 5,-2 9,-3 9,-4 5,-9 17,1 0,1 1,1 1,1l3 6c2,9 2,16 -1,23 -4,7 -2,9 -13,10 -14,1 -12,-2 -15,-4 -2,-1 -1,0 -2,-1l-6 -5c-1,-2 -4,-6 -4,-8zm-5 -68c-2,5 -18,20 -20,24 -2,2 -2,2 -3,4 -5,4 -2,-2 -5,5 8,-1 4,2 13,2 0,3 0,3 1,4 1,3 1,-3 3,3 0,1 0,5 2,8 1,3 0,1 2,3 0,0 -2,0 -2,0 -2,1 -1,0 -2,2l2 4c0,1 0,1 0,1 0,0 0,1 0,1 0,0 1,1 1,2 0,0 0,0 1,0 0,0 0,1 0,1 3,4 1,3 -2,4l2 6c2,7 3,2 -1,8l4 7c1,1 1,1 2,2 3,1 2,1 6,2 5,1 -1,-1 3,3l4 2c8,3 7,5 19,5 0,0 -1,0 -1,0l-1 1c0,0 0,1 0,1l10 2c5,0 0,-2 7,0 -3,3 -11,12 -12,16 3,3 7,2 9,3 9,0 15,-15 26,-21l45 -48 -5 0c-6,-7 3,-4 -7,-6 2,-3 4,-5 6,-8 -4,-1 -1,-1 -5,0 1,-3 0,-2 3,-2 0,-1 -1,-1 -1,-1 0,0 -1,0 -1,-1l-2 -2c-4,-5 0,-2 -6,-3 -10,-2 -6,-1 -10,-8 -7,0 -9,0 -14,1 -1,-2 2,-3 -5,-6 -5,-2 -4,0 -9,2l-3 -7 21 -24c-2,-2 -3,-2 -6,-2 -2,0 0,1 -4,-1l-18 -7c-8,-4 11,-5 -9,-6l-3 -1c-8,-1 -4,1 -11,-2 -4,4 -22,23 -24,27z"/>
   <path class="fil27" d="M418 236c15,1 33,0 48,0 29,0 121,4 140,-1 8,-2 13,-6 21,-5 31,6 52,93 49,118 -3,-10 -12,-90 -45,-110 -12,-7 -12,0 -23,0 12,0 21,15 26,24 8,17 17,48 17,68 -3,-4 -1,0 -3,-6 -3,-8 -8,-59 -31,-75 -2,-2 -7,-6 -11,-7 -7,-1 -10,2 -15,3 10,3 14,5 19,12 11,14 22,54 22,71 0,0 -1,-1 -1,-1 0,0 0,-1 0,-1 0,0 -1,-1 -1,-1 -3,-7 -11,-55 -29,-69 -5,-5 -10,-7 -17,-6 -12,2 -3,2 -7,-1 4,-3 6,-3 9,-6 5,-6 0,-1 7,-5 -12,-2 -47,0 -61,0 -21,0 -41,1 -62,1 18,2 45,1 63,6 8,2 12,2 21,2 4,4 2,2 2,9 6,-1 7,-2 12,-4l10 -4c-3,2 -3,1 -3,5 14,3 24,20 29,35 2,8 4,16 6,25 8,39 -10,24 50,34 27,4 33,10 43,11 3,0 1,0 3,-1 3,-3 0,2 1,-3 -7,-3 1,3 -13,-5 -6,-4 5,2 -3,-1 0,-9 -4,-17 -3,-26 2,-10 -12,-51 -16,-61 -7,-14 -23,-36 -38,-39 0,0 -1,0 -1,1 -1,6 -6,7 -13,7l6 -2c-14,-1 -135,3 -169,2 -10,0 -19,-1 -28,-1 -9,-1 -19,-2 -27,-2 9,5 10,8 16,9z"/>
   <path class="fil12" d="M707 354c-1,5 2,0 -1,3 -2,1 0,1 -3,1 22,4 35,27 44,48 4,12 8,23 10,36 2,8 4,37 6,40 2,-3 1,0 2,11 0,4 0,9 0,13 10,-6 84,-73 89,-81 -7,-2 -5,0 -12,-2 4,-10 28,-22 28,-33 1,-6 -6,-1 -7,-1 -4,2 -3,2 -8,2 0,2 1,3 0,4 0,0 0,0 0,0l-7 0c-8,-4 6,0 -2,-1 -5,-2 -1,-1 -3,0 0,1 -2,1 2,2l-4 3c-2,-6 -5,-2 -9,-5 -11,6 -17,21 -26,21 -2,-1 -6,0 -9,-3 1,-4 9,-13 12,-16 -7,-2 -2,0 -7,0l-10 -2c0,0 0,-1 0,-1l1 -1c0,0 1,0 1,0 -12,0 -11,-2 -19,-5l-4 -2c-4,-4 2,-2 -3,-3 -4,-1 -3,-1 -6,-2 -1,-1 -1,-1 -2,-2l-4 -7c4,-6 3,-1 1,-8l-2 -6c3,-1 5,0 2,-4 0,0 0,-1 0,-1 -1,0 -1,0 -1,0 0,-1 -1,-2 -1,-2 0,0 0,-1 0,-1 0,0 0,0 0,-1l-2 -4c1,-2 0,-1 2,-2 0,0 2,0 2,0 -2,-2 -1,0 -2,-3 -2,-3 -2,-7 -2,-8 -2,-6 -2,0 -3,-3 -1,-1 -1,-1 -1,-4 -9,0 -5,-3 -13,-2 -2,3 -4,4 -7,8 -3,3 -4,5 -7,8 -5,5 -10,13 -15,16z"/>
   <path class="fil28" d="M88 99l2 0c-2,10 2,-3 0,9 -1,7 5,4 9,6 2,1 1,1 4,2 10,5 19,21 30,29 1,0 2,-1 2,-1 0,0 0,0 1,0 0,0 0,0 0,0l3 -1c3,-1 1,1 3,-1l-12 -14c2,-3 0,-2 3,-4 8,2 2,4 11,5 7,1 10,-1 15,-2 12,-1 18,0 31,0 5,5 13,18 18,20l8 9 4 -3c1,-1 1,-1 3,-4 8,4 6,-4 15,-3 15,1 4,-1 12,-2 5,0 0,2 3,0 -4,-5 -11,-11 -12,-18 4,-1 1,-1 4,-1 6,1 -1,1 4,3 4,-2 1,0 6,-3l7 -4c11,-3 -1,-1 10,-4l19 -5c6,-1 3,-1 4,-2 3,-3 4,-2 8,-3 6,6 3,8 15,8 -1,-3 -10,-20 -13,-22 -2,4 2,-2 -4,1 -9,5 6,-1 -2,2 -6,-4 -19,-19 -21,-25 -2,0 -8,1 -10,2 -6,3 3,2 -6,5l-21 8c-2,1 -3,1 -5,1 -3,1 -2,1 -4,1 -7,1 -1,0 -4,-1 -1,0 -16,-2 -17,3 3,2 2,2 2,7 -5,0 -12,-1 -16,0 -8,3 -10,7 -18,2l-11 -4c-5,-1 -9,-6 -13,-10l-19 -22c-5,1 -22,12 -26,15 -7,6 -17,14 -22,21z"/>
   <path class="fil29" d="M300 689c4,7 41,40 48,49 17,19 12,17 25,17 -1,-4 -6,-9 -8,-13 -2,-4 -25,-34 -24,-36 6,-3 0,2 9,2 2,-2 4,-4 6,-9 3,0 4,0 7,1 7,1 2,0 7,3 3,2 6,4 10,2 4,6 9,13 14,21 2,3 4,8 6,11 4,7 2,8 7,10 2,-3 0,-6 -2,-9l-11 -26c9,0 5,1 11,4 1,1 0,0 2,1l2 1c8,3 16,2 23,0 5,-1 2,1 5,-2l11 36c7,-9 -15,-68 -20,-78 -2,-5 -4,-6 -6,-9 -2,-2 -22,-11 -33,-18 -7,-5 -25,-19 -32,-21l-17 12c-12,10 -34,35 -40,51z"/>
   <path class="fil30" d="M704 126l-10 17c1,4 -1,2 3,4 7,4 11,-3 14,-7 2,-4 11,-14 11,-17 3,3 4,5 8,5 0,0 2,-1 3,-1 -1,3 -1,1 -1,5 8,0 5,0 9,3 4,3 19,5 22,5 5,0 6,-1 12,-1l-3 5c-1,2 0,-2 -1,2 4,2 3,1 7,4 0,0 4,6 4,6 2,2 2,5 1,9l-2 6c0,0 0,1 -1,1 -2,5 1,2 -5,4 -9,3 -19,1 -27,-2 -4,4 -4,5 -3,11 0,0 0,0 0,0 0,0 1,0 1,0 7,3 21,3 27,2 20,-3 5,9 35,-25 5,1 1,3 9,0 9,-4 12,-1 15,0 6,2 10,0 13,0 4,1 -1,1 6,3 4,0 2,-1 7,-1 -8,13 -34,39 -39,47 4,1 7,1 9,2 5,-5 15,-16 20,-20l15 -16c1,-5 2,-5 5,-8 3,-3 4,-5 6,-7 -5,0 -10,-3 -3,-10l26 -29c-6,-2 -28,-1 -41,0 2,-5 -2,-3 6,-4 5,0 2,0 6,-1 -5,-1 -6,-1 -12,-1 -9,-1 -10,-1 -13,3 -1,1 -1,2 -3,3l-21 24c-10,10 -13,12 -15,14l-8 -5c-6,-6 5,0 -7,-9 -4,-3 0,-2 -1,-4 -10,-2 -19,6 10,-31 8,-11 4,-7 4,-10 0,0 0,0 0,0 -5,-1 -13,-3 -19,-3l0 -1c0,0 -1,-1 -1,-1 -1,-2 0,0 -3,-1l-2 -2c-5,-3 -20,-1 -25,0 -6,1 -5,3 -9,-2l-13 18c-7,-1 -5,-1 -11,-1l11 -20c-9,-1 8,-2 -13,-1 -6,0 -8,-1 -14,-1 -3,3 -3,4 -6,7 -3,-2 -7,-3 -12,-4 -1,8 -5,7 -6,14 4,2 3,0 8,3 1,1 0,1 2,2l6 -3c10,5 3,2 8,5 2,3 7,5 10,2 -3,5 -6,8 -9,13z"/>
   <path class="fil31" d="M16 251c-2,7 0,70 0,86 1,13 -3,17 14,17l2 -66c2,4 20,20 26,26 6,6 23,22 27,27 4,1 2,0 4,3 2,-3 0,0 2,-4 0,0 1,-2 1,-2l0 -1c0,-1 0,-1 0,-1l4 -7 -11 -11c2,-1 1,0 2,-2 5,-8 -5,-13 -8,-17 -2,-3 0,-3 -3,-6 12,3 23,17 33,25 3,-2 3,-4 3,-4 0,0 0,0 1,-1l6 0c1,-1 1,0 1,-2l1 -2c2,-2 4,0 6,-1 7,0 -1,1 5,-2 7,4 1,5 7,4 2,-1 4,-3 5,-5 -2,-1 -3,-2 -5,-4 -3,-3 -4,-3 -5,-6 -8,-9 -96,-88 -99,-94 -6,7 -6,77 -6,92 -2,-1 -2,-2 -4,-2 -5,1 -3,1 -4,2 -6,-10 -3,-27 -4,-38 0,-5 0,-2 -1,-4z"/>
   <path class="fil29" d="M786 568l-3 5c-1,0 -5,1 -5,1 -4,0 -6,1 -10,1 3,-3 -4,5 2,0 -1,2 -3,2 -5,3l-12 7c-7,5 -6,2 -12,5l-8 5c-8,4 -11,-1 -8,5 17,9 24,17 34,33 3,4 6,9 9,14 5,8 11,21 14,31 3,7 10,32 12,35l28 -22 2 1c-9,-36 -19,-54 -38,-81 -8,-13 -13,-14 -18,-21 9,3 16,12 21,18 5,5 3,2 9,11 21,34 15,33 29,68 4,0 12,-5 15,-7 13,-8 8,-4 12,-12 -5,-18 -11,-30 -18,-46 0,1 0,1 0,1 0,1 0,1 0,1l0 2c-1,2 0,3 -1,6 -2,8 -12,14 -21,5 -2,-3 -9,-24 13,-28 -2,-5 -5,-9 -8,-13 -17,-19 -12,-12 -26,-25 -3,-2 -3,-3 -2,-3l-5 0z"/>
   <path class="fil32" d="M36 138c-4,4 -8,18 -9,24 -15,43 -8,70 -11,89 1,2 1,-1 1,4 1,11 -2,28 4,38 1,-1 -1,-1 4,-2 2,0 2,1 4,2 0,-15 0,-85 6,-92 1,-10 11,-41 16,-49 4,0 -3,-2 1,1l1 1c0,0 1,0 1,0 3,2 0,-1 3,2l3 8c4,-1 7,-4 14,1 2,1 1,1 3,2 -8,-1 -2,0 -4,2 1,0 3,0 4,0l4 1c0,0 3,3 5,2 0,0 -2,1 3,6 3,3 4,3 10,4 -1,-8 -4,-8 -12,-17 3,-1 4,-1 7,-4l5 -6c4,9 2,0 9,3 8,3 3,3 8,0 6,-3 6,-1 12,1 7,3 7,2 16,2 3,-1 2,-1 5,3l37 37c4,5 12,14 17,14 5,0 5,-3 6,-7l-10 -9c-8,-4 -30,-30 -36,-37 -4,-3 -10,-8 -11,-13 2,-1 8,-1 13,-2 7,0 8,2 14,1 9,-1 25,-4 28,3 0,-7 0,-1 1,-4 -5,-2 -13,-15 -18,-20 -13,0 -19,-1 -31,0 -5,1 -8,3 -15,2 -9,-1 -3,-3 -11,-5 -3,2 -1,1 -3,4l12 14c-2,2 0,0 -3,1l-3 1c0,0 0,0 0,0 -1,0 -1,0 -1,0 0,0 -1,1 -2,1 -11,-8 -20,-24 -30,-29 -3,-1 -2,-1 -4,-2 -4,-2 -10,1 -9,-6 2,-12 -2,1 0,-9l-2 0c-6,2 -32,38 -37,49l-9 0c-2,-6 -5,-2 -6,-10z"/>
   <path class="fil33" d="M887 667l6 37 8 -3c0,0 1,0 1,0 0,-1 0,-1 0,-1l16 -7c12,-4 12,-5 29,-12 6,-2 5,-3 10,-5l3 -2c1,0 2,1 5,-3l1 -3c2,-5 0,-1 3,-5 1,1 1,2 1,2l0 2c1,1 1,1 1,1 1,0 3,0 4,-3 1,-7 0,2 -2,-4 11,0 7,-1 5,2 0,0 -1,0 -1,1 5,1 2,-3 8,-4 12,-1 10,-3 11,-5l2 36c6,3 2,5 11,5 1,-9 1,-18 2,-26 0,-11 -2,-18 3,-22 0,0 0,0 0,0 1,2 2,4 5,5 5,2 0,-4 5,1l0 -32c0,-5 -2,-10 -3,-21 -1,3 -1,3 -2,7l-1 8c-2,-3 -2,-5 -2,-8l-5 1c0,0 0,0 0,0 0,0 0,0 0,0l-2 27c-2,0 -3,0 -5,-1 -8,-3 -7,-19 -7,-26l-1 0c-1,-17 -2,-7 -3,-15 -4,2 -10,4 -15,3 -3,0 -3,-2 -10,2l-5 2c0,0 0,1 -1,1l-8 5c-4,4 3,4 -6,4 0,0 1,1 1,1l1 6c-11,0 -15,10 -9,15 -4,0 -4,0 -8,2 -17,9 1,-1 -12,4 -3,1 -2,2 -7,2 0,5 2,5 -2,6l-3 1c-11,5 -5,0 -11,4 -3,2 2,1 -7,1l-2 3c0,0 0,0 0,0l-1 4c3,6 0,6 -1,7z"/>
   <path class="fil34" d="M192 281c5,-4 1,-1 4,-1 3,0 0,2 3,-2 3,-3 2,-5 7,-5 22,-2 19,40 14,50 -1,0 -1,1 -1,1 0,0 0,0 0,1 0,0 -1,0 -1,0 -2,5 -1,4 -5,5 -1,1 -5,1 -6,2 -5,1 -17,-2 -20,-4 -6,-5 -8,-11 -8,-19 1,-12 4,-3 5,-22l8 -6zm-58 14c1,3 2,3 5,6 2,2 3,3 5,4l48 47c6,4 4,2 10,1 0,-7 -4,-9 -10,-16 3,0 10,-1 11,0 4,0 -2,2 7,1 5,-1 18,-2 21,-6 -1,0 2,2 -2,-4 -1,-2 -3,-3 -4,-5 -3,-5 6,-13 2,-29 -4,-10 2,-7 -2,-13 5,-2 5,-2 8,0 -2,-9 1,-4 4,-7 4,-4 -3,-2 3,-3 2,-1 5,0 7,0l-1 -2c0,0 0,0 0,0l-3 -4c-5,-8 -5,-5 -9,-11l-1 -2 -5 -4c-5,-6 -3,-1 -11,-11 -1,-2 -2,-3 -4,-5 -3,-2 -1,0 -4,-3 -5,-5 -6,-11 -16,-7 -5,2 0,2 -5,3 -9,1 -5,-1 -14,2l-10 2c-7,1 0,0 -7,-1 -3,0 -6,0 -9,0 4,8 14,14 17,22 -1,1 0,0 -2,2 -4,2 4,-2 -1,0 -1,1 -11,2 -14,0 -9,-4 -5,1 -9,-4 -1,2 -7,5 -10,6 -1,1 -1,1 -4,0 -9,0 2,-2 -7,-1 -3,0 -5,0 -9,0 2,4 29,33 33,36 -4,5 -1,1 -3,6l-5 0z"/>
   <path class="fil32" d="M418 236c3,3 3,2 7,2 3,1 15,10 23,13 -1,-6 -1,-4 -3,-7 8,3 16,5 25,7l2 -5c6,0 7,0 13,2 15,5 27,-5 27,18 7,-1 6,-3 12,0 3,2 0,0 3,2 1,0 3,0 5,1 -9,4 -23,1 -34,2l-3 1c0,0 0,1 0,1 0,5 -1,2 -1,6 2,2 1,1 4,2 -1,-2 0,-2 -3,-4 1,0 3,-1 4,-2 -2,-5 -3,3 -3,5 5,0 5,-1 8,-1 12,1 3,2 24,2 -1,-1 0,0 -4,0l-27 0c3,4 1,2 8,4 6,1 -3,-3 2,1 4,3 5,9 6,13 7,37 -3,29 -15,30l6 3c1,0 5,0 6,0 4,0 6,0 10,1 17,2 16,-3 23,-1 1,7 -8,5 -19,6 -10,0 -30,3 -42,-2l-7 2 8 2c1,0 6,1 8,1 8,1 13,0 8,10 -5,0 0,-2 -6,-4 -5,-1 -9,8 -20,3 -1,-1 -3,-1 -4,-2 -4,2 -9,4 -12,6 7,15 67,10 84,8 6,-1 9,-1 15,-1 5,-1 9,-2 11,-6 -2,-2 0,-1 -3,-2 -2,-1 -3,-1 -5,-1 -6,-1 -6,0 -10,1 -6,0 -15,0 -20,0l0 -9c-4,-1 -4,-1 -6,-4 3,0 7,0 10,0 5,0 6,-1 12,1 -2,-4 -2,0 0,1 2,2 -2,3 3,1 0,-1 0,-2 0,-2 0,0 0,-1 0,-1 0,0 0,-1 0,-1 0,0 0,0 0,-1l5 1 -7 -2c0,-5 -3,-6 -5,-9l-11 -46c7,-7 0,-9 12,-11 19,-5 20,-15 31,4 11,18 12,42 15,50 1,-14 -4,-39 -11,-52 -6,-11 -8,-6 -10,-14 4,-1 4,-2 10,-1l-4 -2 2 -3c0,-4 0,-3 3,-5l-10 4c-5,2 -6,3 -12,4 0,-7 2,-5 -2,-9 -9,0 -13,0 -21,-2 -18,-5 -45,-4 -63,-6 21,0 41,-1 62,-1 14,0 49,-2 61,0 -7,4 -2,-1 -7,5 -3,3 -5,3 -9,6 4,3 -5,3 7,1 7,-1 12,1 17,6 18,14 26,62 29,69 0,0 1,1 1,1 0,0 0,1 0,1 0,0 1,1 1,1 0,-17 -11,-57 -22,-71 -5,-7 -9,-9 -19,-12 5,-1 8,-4 15,-3 4,1 9,5 11,7 23,16 28,67 31,75 2,6 0,2 3,6 0,-20 -9,-51 -17,-68 -5,-9 -14,-24 -26,-24 11,0 11,-7 23,0 33,20 42,100 45,110 3,-25 -18,-112 -49,-118 -8,-1 -13,3 -21,5 -19,5 -111,1 -140,1 -15,0 -33,1 -48,0z"/>
   <path class="fil33" d="M3 624l0 105 2 -7c0,0 1,4 0,1 2,-2 1,0 1,-3 0,0 0,-3 0,-4 3,2 4,2 9,2 3,5 0,5 4,6 3,1 2,-2 8,1l2 -46c5,-1 8,2 8,2l8 2c5,-3 1,-1 3,-2 1,-2 2,-3 8,-1l2 0c0,0 0,0 0,0 15,5 2,6 21,12 1,0 2,0 4,1l12 6c3,1 5,-1 8,-2 0,1 -1,4 -1,5 6,0 9,1 14,1 4,1 1,0 4,2l6 4c5,-2 2,2 3,-4 1,5 1,4 2,6 1,-7 0,-4 3,-5l7 -43c-4,1 -6,2 -8,7 -8,0 0,-3 -15,-4l-13 -8c-1,-1 0,1 -2,-2 -1,-1 0,-1 -1,-2l-1 -2c-4,0 -8,0 -11,-1l-8 -5c-4,-1 -3,0 -7,-3l-1 -1c-3,-2 0,1 -3,-3 0,0 -1,-1 -1,-2 -2,-2 -3,-4 -6,-5 -4,-1 1,2 -3,-1l-9 -6c0,0 -1,0 -1,0l-2 -2 -1 3c0,1 0,1 -1,3 -1,0 -8,-1 -9,-2 -5,-2 -1,0 -4,-6 -4,1 -3,-3 -3,5l-3 31c-2,-4 1,-3 -3,-6 -1,-1 -4,-1 -6,-2 -4,-14 -2,-28 -3,-32 -1,-5 -1,-2 -3,0 -6,4 5,-1 -1,1l-6 -1c0,-7 1,-7 -1,-10l-2 17z"/>
   <path class="fil35" d="M307 590l31 17c2,1 6,3 7,4 13,4 5,0 17,8l50 35c5,2 11,5 15,8 -3,1 -6,-2 -9,-5 -3,-2 -5,-4 -8,-6 -6,-4 -45,-38 -48,-44 7,1 30,3 35,6 11,6 28,38 65,56 -11,-1 -48,-49 -49,-51l38 0c6,12 23,45 32,52 4,3 5,3 8,6l5 1c-3,-6 -7,-7 -12,-14 -2,-5 -6,-11 -8,-16 -2,-3 -12,-22 -14,-26 3,0 41,0 43,3 3,3 4,14 4,19l1 34 7 0c0,-9 0,-20 0,-28 1,-9 3,-18 3,-28 4,-1 17,1 22,1l16 3c5,2 3,-2 4,3 0,0 0,-1 0,-1 6,-5 12,-23 19,-25 -24,0 -17,-1 -30,-3l-31 -1c-25,-2 -51,-5 -77,-4l-62 -1c-8,0 -5,-1 -11,-2 -7,-2 -25,-1 -33,-1 -6,1 -2,1 -2,2 0,0 0,0 0,1l0 1c-6,-3 -22,-7 -29,-8 -1,3 0,-1 1,2 1,4 2,-1 0,2z"/>
   <path class="fil36" d="M195 907l-13 1c-15,5 -17,-3 -36,5 -1,0 -2,0 -2,0 0,0 -1,1 -1,1 0,0 0,0 -1,0 12,2 36,13 66,19 25,4 52,10 76,11l163 8c-1,0 -1,-1 -1,-1l-3 -2c-2,-1 -4,-1 -6,-2 -5,0 -6,-1 -12,-1 -3,0 -2,0 -4,-1l-3 -1c-7,-3 -8,0 -14,-3l-13 -4c-6,-2 2,1 -4,-2l-19 -7c3,0 1,1 3,-2 1,-3 1,-3 -1,-6l-2 -1c-2,-1 -27,-2 -31,-3 -16,-1 -32,-3 -48,-4 -31,-3 -60,-10 -90,-15 0,4 -2,7 -4,10z"/>
   <path class="fil37" d="M497 205c1,-4 4,-8 5,-13 0,-1 2,-7 2,-7 0,-5 1,-4 -3,-6l17 1c-3,-1 -10,-1 -13,1 4,3 2,2 11,2 2,9 6,14 7,22l-26 0zm45 -65c-2,11 -6,18 -13,23 -7,6 -14,5 -23,5 -5,1 -4,0 -7,3 3,2 12,3 17,3 8,0 14,-1 17,2 -4,2 -13,0 -19,0 -6,1 -26,3 -13,-8l2 -2c-9,-3 -12,-12 -16,-22 -9,0 -2,12 -2,14 -5,2 1,-1 -3,1l-11 4c-2,-5 -2,-10 -6,-13 -1,-1 1,0 -2,-1 -7,-1 -7,5 -7,5 0,2 -1,4 -1,7 -1,4 -1,4 0,8 2,7 10,33 13,38l15 1 7 4c9,-4 2,-4 15,-4 7,0 14,0 20,1 19,1 4,0 15,4 2,1 5,1 7,3l1 6c10,0 20,0 30,-1 5,0 10,-1 15,-1 2,0 4,0 6,0 6,-1 6,-2 7,-3 -11,-2 -23,-3 -34,-4 -9,-1 -29,-1 -35,-4 2,-1 0,0 3,-1 5,-1 47,2 51,3l11 -22c-2,-4 0,-2 0,-7 -4,0 -2,1 -7,1 0,-9 -3,-1 -3,-12 -3,9 -4,0 -11,4 -2,1 2,0 -3,2 1,-8 10,-28 13,-36l-2 -3c-3,5 -8,17 -13,20 -2,-3 -1,0 -1,-4 0,-3 1,-5 2,-10 -19,1 -11,3 -15,7 -6,5 -7,-2 -12,-3 0,0 -4,1 -6,1 0,-5 0,-6 -2,-9z"/>
   <path class="fil38" d="M788 262c7,3 3,1 11,2l3 1c20,1 1,2 9,6l18 7c4,2 2,1 4,1 3,0 4,0 6,2l-21 24 3 7c5,-2 4,-4 9,-2 7,3 4,4 5,6 5,-1 7,-1 14,-1 4,7 0,6 10,8 6,1 2,-2 6,3l2 2c0,1 1,1 1,1 0,0 1,0 1,1 -3,0 -2,-1 -3,2 4,-1 1,-1 5,0 -2,3 -4,5 -6,8 10,2 1,-1 7,6l5 0c5,-5 29,-26 32,-33 -3,-4 2,2 -1,-2l-3 -2c-1,1 -1,1 -1,1l-11 1c2,0 32,-34 34,-38 -5,1 -19,4 -24,2 -9,-2 -3,0 -9,1 -3,0 -5,-4 -5,-4 0,0 0,0 0,-1 -10,1 -14,4 -19,1 -3,-1 -1,0 -4,-1 -3,-2 -3,-2 -6,-3l-4 5 -2 -2c-2,-2 -1,-1 -1,-1l24 -28c0,-1 -1,-1 -1,-1 0,0 0,0 -1,0 0,0 0,0 0,0 -10,-3 0,-3 -13,-3 1,-2 3,-2 3,-4 -1,-4 0,-1 -5,0 -15,3 -9,-1 -16,-2 -4,-1 0,1 -6,0 -4,-1 0,-1 -6,-2l-5 0 -1 6c-17,0 -14,-1 -23,9 -4,5 -12,12 -15,17z"/>
   <path class="fil39" d="M136 63l19 22c4,4 8,9 13,10l11 4c8,5 10,1 18,-2 4,-1 11,0 16,0 0,-5 1,-5 -2,-7 1,-5 16,-3 17,-3 3,1 -3,2 4,1 2,0 1,0 4,-1 2,0 3,0 5,-1l21 -8c9,-3 0,-2 6,-5 2,-1 8,-2 10,-2 2,6 15,21 21,25 8,-3 -7,3 2,-2 6,-3 2,3 4,-1l-2 -2c-1,-1 -2,-2 -2,-2 -1,-1 -1,-3 -2,-4l-21 -36c-2,-3 -3,-5 -5,-7 -2,-3 -3,-3 -4,-7 -53,2 -70,-1 -120,20 -5,2 -10,4 -13,8z"/>
   <path class="fil40" d="M305 93c3,2 12,19 13,22 -12,0 -9,-2 -15,-8 -4,1 -5,0 -8,3 -1,1 2,1 -4,2l-19 5c-11,3 1,1 -10,4l-7 4c-5,3 -2,1 -6,3 -5,-2 2,-2 -4,-3 -3,0 0,0 -4,1 1,7 8,13 12,18 -3,2 2,0 -3,0 -8,1 3,3 -12,2 -9,-1 -7,7 -15,3 -2,3 -2,3 -3,4l-4 3c3,6 23,27 27,33 1,2 1,0 1,3 9,1 8,-1 13,3 4,3 4,2 11,3 24,2 18,-23 16,-26 -3,-3 -8,-3 -11,-5 -4,-3 -9,-14 -14,-17 1,-1 3,-2 5,-3 8,-6 5,-1 15,-7 7,-4 15,-5 23,-7 6,-1 11,0 14,-6l9 14c4,0 4,-1 8,-1 -1,-7 -4,-9 -6,-14 4,0 13,1 15,3 7,7 -1,6 12,5 -1,-4 -3,-5 -4,-9 5,-7 2,-6 6,-7 1,1 8,13 9,14 5,-2 2,1 5,-3 1,-2 -3,-2 2,-1 2,-3 0,-1 5,-2 7,-2 9,-1 14,-3l-2 -9c-5,-4 -4,-12 -10,-17 -2,5 -1,3 -7,3 -4,-1 -10,2 -23,1l-15 -23c-5,4 0,3 -9,3 -10,1 -3,1 -4,4 -1,4 -10,1 -14,3 -2,2 -2,-2 -2,5z"/>
   <path class="fil41" d="M228 632c-1,4 -3,1 6,6 5,2 19,14 23,13l17 -25c2,-3 4,-4 6,-7 4,-5 9,-9 14,-14 3,-2 6,-4 9,-5 2,-2 9,-6 10,-1 0,1 -13,9 -15,10 -6,5 -10,8 -14,13 -8,10 -19,24 -23,35 0,4 4,6 7,8 3,3 6,5 9,8 6,5 11,9 17,14 3,-2 10,-15 12,-19 3,-3 4,-5 7,-8 8,-13 26,-32 43,-36 -15,-9 -23,-17 -42,-27 -3,-1 -6,-3 -9,-5 -22,-12 -25,-14 -38,-5 -20,15 -25,24 -39,45z"/>
   <path class="fil42" d="M516 74l3 4 8 5c7,5 5,11 11,14 3,1 9,2 12,3l1 7 19 1c4,0 3,1 7,1l3 -8c5,0 6,1 11,1l-6 21 7 2c6,-6 1,-8 11,-8l-6 17c9,-6 7,6 7,7 1,3 0,0 3,3 0,1 0,1 0,1 5,7 0,7 8,17l2 3c-2,4 -5,9 -7,13 -3,6 -4,9 -8,11l-11 22 22 2c4,-7 25,-41 30,-45 12,5 15,-2 20,-11 5,-7 9,-14 13,-21 2,2 15,6 18,7l10 -17c-4,-1 -8,1 -17,-2 -2,0 -1,0 -2,-1l-9 9 -7 -1c-4,0 -2,1 -6,-2 -4,8 -12,17 -16,26 -8,13 -11,13 -23,4 1,-13 6,-13 8,-17l2 -3c0,0 0,0 0,0 11,-22 14,-22 0,-22l-1 -3c0,0 0,0 0,0l-7 0c-2,-5 4,-2 -4,-6l0 3c-5,-1 -4,-2 -6,-3 -4,-3 -3,-1 -5,-2 3,-7 3,-8 -3,-11l-3 3c-1,2 -1,1 -1,3 -8,0 -7,-1 -9,-2 2,-6 6,-15 7,-22 -6,0 -11,1 -14,-1 -4,9 -2,7 -12,9 -7,1 -10,3 -18,3 -1,-8 0,-8 0,-15 -4,2 -16,2 -23,2l1 -15 -13 0c-1,15 -3,14 -7,14z"/>
   <path class="fil43" d="M549 815c-3,-4 0,-1 -4,-3l-13 -7c-12,-4 -64,-5 -79,-5 -2,0 -5,0 -6,0 -2,-1 -1,0 -1,-2 0,0 0,0 0,-1 -8,2 -26,6 -28,13 -2,4 -3,13 0,17 5,10 77,13 89,14 27,1 54,0 77,-6 31,-9 26,-15 18,-29 -2,-4 -5,-8 -10,-10 10,11 -23,17 -31,18 -5,1 -9,3 -14,4l41 -5c0,9 -1,9 -8,9 -12,2 -45,3 -54,1 -4,-1 -2,-1 -6,-2 -6,-1 -18,0 -26,-1 -6,-1 -12,-1 -17,-2 -12,-1 -11,-1 -15,-3 0,0 -1,0 -1,0 15,1 29,3 44,3 16,0 30,-2 44,-3z"/>
   <path class="fil31" d="M914 307l2 2c0,0 1,1 1,1 1,1 -1,1 4,1 4,1 3,-1 8,-1 7,0 -1,2 6,2 7,0 1,-2 8,1l4 2c1,0 1,1 1,1 -4,1 -15,14 -18,18 -3,3 -6,6 -9,9 -7,8 -2,13 -4,14 0,7 -1,0 3,3 11,-11 71,-66 76,-76l2 93c3,-1 -1,-1 3,-3 0,0 3,-1 5,-3 2,-1 1,-4 3,1 1,4 -1,4 1,7 0,-23 5,-149 1,-161l-2 81 -11 7 -2 -82c3,2 -79,77 -82,83z"/>
   <path class="fil44" d="M410 325l-2 14c3,2 62,-1 67,-1l7 -2c3,-10 4,-7 5,-9l4 -16c2,-10 4,-21 7,-30 -3,-1 -2,0 -4,-2 0,-4 1,-1 1,-6 0,0 0,-1 0,-1l3 -1c-11,3 -30,-4 -37,-10l-1 1c-8,8 -12,7 -20,31 -3,10 -10,33 -11,42 4,-17 8,-42 16,-59 5,-10 6,-8 12,-15 -10,-13 -27,10 -31,19 -10,19 -12,35 -16,45z"/>
   <path class="fil45" d="M29 831c0,-3 -2,-11 5,-11 2,0 2,0 2,1l16 5c1,0 1,1 1,1 10,5 16,3 31,10 3,1 3,2 6,0 0,-1 1,-1 1,-1 0,0 0,-1 1,-1 0,0 0,0 0,0 -3,-15 4,-21 12,-26 6,-4 19,-10 28,-11l-1 -13c-3,-2 1,-1 -7,-9l-2 -4c-5,2 -1,4 -6,4 -7,0 -2,0 -5,-5 -3,1 -10,0 -12,1l7 2c-7,5 -11,5 -16,3 -7,-2 -16,2 -18,-3 2,0 1,1 5,1 0,0 1,0 1,-1l-5 -5 -11 -5c-3,1 -3,2 -10,2l-3 -4c-6,-4 -8,-3 -12,-2 -3,-4 0,-4 -6,-4l0 2c0,0 -1,0 -1,0 0,0 0,0 0,1l-2 0c-1,12 -5,64 1,72z"/>
   <path class="fil32" d="M874 162c-2,2 -3,4 -6,7 -3,3 -4,3 -5,8 10,4 11,0 11,0 5,-1 2,3 12,1 2,-1 3,-1 6,-2 11,-4 12,-1 12,-1 0,0 0,0 0,0l2 2c4,0 3,1 6,-1l1 3c0,0 0,0 0,1 8,-1 14,-4 20,1 -2,1 -23,25 -26,29 6,1 3,1 8,0 -2,-4 -5,-2 -1,-3 3,1 6,2 9,2 6,0 4,-3 5,-5 3,1 2,1 6,2 0,0 0,0 0,0 0,0 0,1 0,1l0 2c18,0 15,-3 22,-10l2 -4c1,-2 3,-2 7,-6 2,1 1,1 3,2 3,2 1,0 2,1 1,-3 2,-4 3,-7 1,-3 1,-3 4,-6 -6,-7 -1,-5 -1,-10 0,-1 -1,-5 -1,-7 -1,-3 -1,-5 -1,-9l3 0c-3,-11 -13,-23 -20,-32 -1,-1 -3,-1 -4,-2 0,2 1,4 1,5 1,8 -5,12 -13,15 -1,-2 0,-1 -1,-3 0,0 0,0 0,0l0 -2c0,0 0,0 0,-1 -11,4 0,9 -20,10l-4 -5c-8,2 1,2 -7,2 0,0 0,0 0,0 -8,1 -6,0 -15,-1l-20 23z"/>
   <path class="fil27" d="M553 339l62 2c-5,-12 -10,-75 -38,-83 -6,-1 -6,0 -10,1 2,8 4,3 10,14 7,13 12,38 11,52 -3,-8 -4,-32 -15,-50 -11,-19 -12,-9 -31,-4 -12,2 -5,4 -12,11l11 46c2,3 5,4 5,9l7 2z"/>
   <path class="fil12" d="M469 348l5 -4c-22,5 -99,2 -113,13 2,5 7,5 15,7 7,1 12,1 18,2 60,7 238,9 280,-4 -9,-7 -75,-13 -93,-14 -16,-2 -20,-1 -33,-5 -5,2 -1,1 -3,-1 -2,-1 -2,-5 0,-1 -6,-2 -7,-1 -12,-1 -3,0 -7,0 -10,0 2,3 2,3 6,4l0 9c5,0 14,0 20,0 4,-1 4,-2 10,-1 2,0 3,0 5,1 3,1 1,0 3,2 -2,4 -6,5 -11,6 -6,0 -9,0 -15,1 -17,2 -77,7 -84,-8 3,-2 8,-4 12,-6z"/>
   <path class="fil46" d="M377 92l2 5c6,5 5,13 10,17l26 -11 3 6c3,-1 4,-3 12,-3 -1,-10 -5,-14 -6,-22 6,-2 2,-1 6,0l5 -3c1,-8 -3,-5 17,-4 3,7 -4,8 28,8l-1 -12c1,3 0,1 3,2 2,0 13,1 16,-1l4 6 5 0 4 -7c-3,-4 -2,-1 -2,-12l-8 -1c-2,-5 0,-16 0,-22l8 0c-2,-5 -38,-2 -43,-2 -14,1 -35,-2 -47,0 2,5 9,19 10,24l-15 0c0,1 3,10 4,11 1,5 3,8 4,15 -4,1 -8,2 -13,2 -3,-4 -7,-9 -8,-13l-2 1c0,0 0,1 0,1l-1 1c-5,9 1,3 -3,6l2 2c0,0 1,0 1,1 -9,0 -14,3 -21,5z"/>
   <path class="fil47" d="M168 714c2,2 1,0 2,4 0,0 0,3 0,4l9 3c3,0 5,0 7,2 4,2 0,1 4,3 0,-10 -1,-7 3,-8 2,-4 3,-18 4,-23 5,-25 10,-41 22,-64 9,-18 39,-56 59,-56 -3,-4 -2,-1 -8,-5 -8,-2 -17,-5 -25,-2 -7,4 -14,8 -19,12 -32,24 -53,89 -58,130z"/>
   <path class="fil48" d="M909 313c-3,7 -27,28 -32,33l-45 48c4,3 7,-1 9,5l4 -3c-4,-1 -2,-1 -2,-2 2,-1 -2,-2 3,0 8,1 -6,-3 2,1l7 0c0,0 0,0 0,0 1,-1 0,-2 0,-4 5,0 4,0 8,-2 1,0 8,-5 7,1 0,11 -24,23 -28,33 7,2 5,0 12,2 3,-1 2,-1 5,-3 11,-11 59,-58 61,-62 -4,-3 -3,4 -3,-3 2,-1 -3,-6 4,-14 3,-3 6,-6 9,-9 3,-4 14,-17 18,-18 0,0 0,-1 -1,-1l-4 -2c-7,-3 -1,-1 -8,-1 -7,0 1,-2 -6,-2 -5,0 -4,2 -8,1 -5,0 -3,0 -4,-1 0,0 -1,-1 -1,-1l-2 -2 -5 6z"/>
   <path class="fil49" d="M305 93c0,-7 0,-3 2,-5 4,-2 13,1 14,-3 1,-3 -6,-3 4,-4 9,0 4,1 9,-3l15 23c13,1 19,-2 23,-1 6,0 5,2 7,-3l-2 -5c-5,-3 -16,-35 -28,-51 -2,-2 -3,-3 -3,-7l-77 1c1,4 2,4 4,7 2,2 3,4 5,7l21 36c1,1 1,3 2,4 0,0 1,1 2,2l2 2z"/>
   <path class="fil50" d="M697 560c19,-2 51,-5 66,-14 2,-10 -47,-16 -59,-17l-6 1c-15,0 -112,-2 -116,1 -5,6 9,7 13,13 3,3 2,3 2,8 6,0 6,1 12,1 5,0 10,0 14,0 9,0 18,0 27,0 8,0 18,1 26,2 5,0 19,0 21,5z"/>
   <path class="fil51" d="M510 799l-19 0c-1,-8 2,-24 2,-32 1,-5 0,-5 0,-10 1,-7 2,-13 2,-21 0,-3 0,-12 1,-16l1 -2c0,0 0,0 0,-1 2,3 1,3 2,5l3 5c10,10 2,5 4,10 2,4 3,0 7,3l0 9 -9 1c1,8 2,3 9,5 2,6 0,7 1,12l3 32c8,0 22,-1 29,-3 -14,-24 -12,-40 -17,-61l-1 -3c0,-1 0,-1 0,-1 0,0 -1,-1 -1,-1 -2,-4 -2,-6 -4,-9 -2,-2 -5,-5 -6,-8l-1 22c-5,-12 5,-22 -8,-24l-23 -2 4 2c5,2 -1,-1 2,1 -1,15 -3,30 -3,44 -1,13 -4,27 -5,42 -21,0 -11,-4 -32,-3 -4,1 -2,0 -5,2 0,1 0,1 0,1 0,2 -1,1 1,2 1,0 4,0 6,0 15,0 67,1 79,5l13 7c4,2 1,-1 4,3 7,0 36,-8 38,-12l-14 -19c-15,-18 -28,-56 -19,-77l-1 0c-4,9 -8,6 -5,25 2,20 5,29 14,46 2,4 10,15 11,20 -6,4 -21,2 -32,2 -9,0 -23,1 -31,-1z"/>
   <path class="fil52" d="M542 140c2,3 2,4 2,9 2,0 6,-1 6,-1 5,1 6,8 12,3 4,-4 -4,-6 15,-7 -1,5 -2,7 -2,10 0,4 -1,1 1,4 5,-3 10,-15 13,-20l2 3c-3,8 -12,28 -13,36 5,-2 1,-1 3,-2 7,-4 8,5 11,-4 0,11 3,3 3,12 5,0 3,-1 7,-1 0,5 -2,3 0,7 4,-2 5,-5 8,-11 2,-4 5,-9 7,-13l-2 -3c-8,-10 -3,-10 -8,-17 0,0 0,0 0,-1 -3,-3 -2,0 -3,-3 0,-1 2,-13 -7,-7l6 -17c-10,0 -5,2 -11,8l-7 -2 6 -21c-5,0 -6,-1 -11,-1l-3 8c-4,0 -3,-1 -7,-1l-19 -1 -1 -7c-3,-1 -9,-2 -12,-3 -6,-3 -4,-9 -11,-14l-8 -5c8,13 24,42 23,62z"/>
   <path class="fil53" d="M172 667c0,0 -2,0 -3,1l0 -7c-3,2 -3,1 -7,1 -3,-7 0,-1 -3,-4 -3,-3 -1,-1 -4,-8 0,-1 0,-1 0,-1l-2 -4c-18,52 -19,91 -19,151 4,0 21,-4 26,-7 1,-22 0,-42 2,-63 3,-22 6,-39 10,-59z"/>
   <path class="fil54" d="M443 137l0 4c-6,0 -7,2 -8,2l-5 -8c-10,2 -8,6 -8,9l-15 2c1,5 30,61 36,64 6,0 36,0 40,-2l-15 -1c-3,-5 -11,-31 -13,-38 -1,-4 -1,-4 0,-8 0,-3 1,-5 1,-7 0,0 0,-6 7,-5 3,1 1,0 2,1 4,3 4,8 6,13l11 -4c4,-2 -2,1 3,-1 0,-2 -7,-14 2,-14l-1 -18 -3 -3c-1,5 -3,7 -5,10l-11 0c-4,-5 0,-3 -7,-4 -6,-1 -4,0 -9,-2 -1,1 -1,0 -1,2 -1,1 -1,3 -1,4 -6,-4 -5,-1 -6,4z"/>
   <path class="fil55" d="M729 674c1,3 2,4 3,7l11 24c4,11 8,22 11,34 2,0 1,0 2,1 4,3 -2,0 3,2l24 -19c3,-3 4,-6 8,-6 -3,-14 -21,-65 -29,-70 -3,0 -20,18 -24,21 -7,7 -4,6 -9,6z"/>
   <path class="fil56" d="M242 688c-3,-2 1,-1 -2,0 -7,3 -3,2 -4,7 0,3 -1,2 -2,6 -8,0 -3,0 -14,-2l-6 -3c-2,0 -2,-1 -3,-1 0,0 0,4 -1,0 0,-1 0,0 0,-1 -1,-5 -1,-4 -2,-9 0,-4 1,-5 0,-7 -11,29 -15,72 -15,106l32 -5c2,-8 2,-14 3,-25l8 -45c2,-7 6,-14 6,-21z"/>
   <path class="fil57" d="M226 856l43 5c-1,-14 -2,-26 -3,-40 0,-10 4,-33 2,-39 -8,1 -17,2 -25,3 -16,3 -15,-2 -15,14 -1,14 -3,43 -2,57z"/>
   <path class="fil29" d="M681 635c7,1 12,2 17,5 8,4 7,6 12,10 7,6 15,15 19,24 5,0 2,1 9,-6 4,-3 21,-21 24,-21 -4,-9 -12,-20 -18,-26 -9,-9 -12,-14 -28,-20 -2,0 -2,-1 -5,1l-2 2c-1,1 -1,1 -2,2 0,0 0,0 0,1l-3 3c-3,2 -3,2 -6,4l-14 14c-7,6 -5,1 -6,5 -1,3 1,3 3,2z"/>
   <path class="fil58" d="M686 396c-14,-15 -19,-12 -30,-2 3,2 4,2 7,4 4,3 11,11 14,16 4,9 8,19 10,30 5,19 9,53 8,72l21 2c-2,-45 1,-88 -30,-122z"/>
   <path class="fil56" d="M794 713c0,7 4,23 6,31 2,11 2,22 5,33l36 4c-1,-20 -9,-72 -17,-89l-2 -1 -28 22z"/>
   <path class="fil59" d="M720 397c6,10 10,22 14,35 9,31 9,57 9,90l19 3c-3,-37 -1,-65 -12,-99 -17,-55 -43,-60 -46,-65l-2 3c0,1 0,1 0,1 -2,5 0,4 -6,7 0,0 0,0 -1,0 0,0 0,0 0,1 7,0 11,5 15,10 3,3 7,9 10,14z"/>
   <path class="fil59" d="M259 524l23 -3c0,-4 0,-32 2,-49 2,-14 4,-29 8,-43 7,-22 22,-51 48,-56l-12 -7c-13,6 -16,9 -25,17 -2,2 -5,4 -7,7 -8,10 -14,23 -19,38 -11,29 -15,65 -18,96z"/>
   <path class="fil60" d="M225 842c-11,-6 -61,-7 -64,-18 1,-7 4,-8 10,-10 6,-1 12,-2 18,-2 11,-1 24,-1 36,-3l1 -21 -34 7 -1 1c-10,0 -49,12 -55,23 -4,6 1,14 6,17 10,6 68,20 83,19l0 -13z"/>
   <path class="fil61" d="M765 839c8,-2 16,-4 24,-7 22,-8 10,-11 10,-13 -1,-1 -1,-1 -1,-1 9,1 21,4 23,11 -6,8 -44,13 -57,15l0 20c25,1 52,-8 74,-11l-3 -1c-4,-3 -4,-5 -4,-13l-8 -4c6,-9 5,-11 -7,-18 -1,-1 -3,-2 -3,-3 -7,-4 1,-2 -7,-5 -12,-4 -32,-3 -42,-7 0,9 -1,31 1,37z"/>
   <path class="fil62" d="M199 199l0 -4c0,1 1,0 1,1 1,2 0,0 5,0 2,0 2,1 2,1l9 -1c8,0 -1,-2 12,-2l7 0c6,-1 2,-2 7,-2 3,0 -3,2 2,0 0,-3 0,-1 -1,-3 -4,-6 -24,-27 -27,-33l-8 -9c-1,3 -1,-3 -1,4 -3,-7 -19,-4 -28,-3 -6,1 -7,-1 -14,-1 -5,1 -11,1 -13,2 1,5 7,10 11,13 6,7 28,33 36,37z"/>
   <path class="fil33" d="M282 718l-17 -1c0,-1 1,-1 1,-1 0,0 0,-1 0,-1l2 -3c-9,3 8,-3 -23,-3 0,-6 2,-11 0,-13 -7,16 -15,63 -16,82l40 -4c3,-22 7,-37 13,-56z"/>
   <path class="fil47" d="M153 645l2 4c0,0 0,0 0,1 3,7 1,5 4,8 3,3 0,-3 3,4 4,0 4,1 7,-1l0 7c1,-1 3,-1 3,-1 9,-23 7,-31 23,-60 5,-9 12,-18 18,-24 6,-6 14,-12 21,-16 0,0 1,0 1,0 0,-1 1,-1 1,-1 1,-1 1,-1 2,-2 -6,-1 -9,-4 -13,-7 -16,4 -37,25 -45,35 -10,14 -19,33 -27,53z"/>
   <path class="fil63" d="M443 137c1,-5 0,-8 6,-4 0,-1 0,-3 1,-4 0,-2 0,-1 1,-2 5,2 3,1 9,2 7,1 3,-1 7,4l11 0c2,-3 4,-5 5,-10l3 3c2,-5 5,-15 7,-21 3,-6 9,-14 9,-20 -2,-3 -1,-1 -4,-2 -7,0 1,2 -17,2l-1 7c-7,0 -8,-4 -17,-2l-6 2c2,-2 0,-3 -1,-6 -23,0 -19,-3 -15,18 -7,1 -8,0 -8,5l9 27c0,1 0,1 1,1z"/>
   <path class="fil64" d="M457 672c2,2 1,1 3,1l6 2c-8,5 -9,17 -9,26l13 4 22 3c30,-1 52,-1 79,-8 1,-10 0,-18 -6,-26l-6 2c1,2 4,-1 1,7 -1,4 -2,3 -6,6l-4 3c-3,3 -6,3 -11,3 -6,1 -26,5 -28,-2l-1 -3c-2,-5 -1,-6 -4,-11l-21 -3c-8,-5 -20,-3 -28,-4z"/>
   <path class="fil47" d="M804 559c-1,3 1,1 -5,5l-3 2 6 4c3,2 2,2 5,4 17,17 31,36 40,59 3,10 6,21 10,29 4,-1 2,-1 4,-5l10 1c3,-1 0,2 2,-1 2,-2 1,-3 1,-7l2 0c-4,-16 -18,-43 -26,-55 -9,-14 -26,-30 -41,-38 -4,0 -1,-1 -5,2z"/>
   <path class="fil65" d="M469 706c5,1 8,4 16,3l23 2c13,2 3,12 8,24l1 -22c1,3 4,6 6,8 2,3 2,5 4,9 0,0 1,1 1,1 0,0 0,0 0,1l1 3c5,21 3,37 17,61 -7,2 -21,3 -29,3l-7 0c8,2 22,1 31,1 11,0 26,2 32,-2 -1,-5 -9,-16 -11,-20 -9,-17 -12,-26 -14,-46 -3,-19 1,-16 5,-25 -12,4 -19,4 -33,4l-28 -3 -22 -3c-2,-1 1,-3 -1,0 -4,5 0,1 0,1z"/>
   <path class="fil49" d="M518 96c-3,1 -6,3 -9,5 -8,5 -23,36 -6,61 6,9 19,5 27,-6 13,-16 -3,-49 -12,-60z"/>
   <path class="fil66" d="M184 287c-1,19 -4,10 -5,22 0,8 2,14 8,19 3,2 15,5 20,4 1,-1 5,-1 6,-2 4,-1 3,0 5,-5 0,0 1,0 1,0 0,-1 0,-1 0,-1 0,0 0,-1 1,-1 5,-10 8,-52 -14,-50 -5,0 -4,2 -7,5 -3,4 0,2 -3,2 -3,0 1,-3 -4,1l-8 6z"/>
   <path class="fil47" d="M208 678c1,2 0,3 0,7 1,5 1,4 2,9 0,1 0,0 0,1 1,4 1,0 1,0 1,0 1,1 3,1l6 3c11,2 6,2 14,2 1,-4 2,-3 2,-6 1,-5 -3,-4 4,-7 3,-1 -1,-2 2,0 2,-3 1,-1 2,-4l5 -15c2,-5 7,-14 8,-18 -4,1 -18,-11 -23,-13 -9,-5 -7,-2 -6,-6 -3,6 -8,13 -11,21 -3,7 -8,17 -9,25z"/>
   <path class="fil36" d="M466 767c-2,6 -4,21 -7,26 -32,0 -62,1 -92,3 2,2 3,2 10,1 25,-2 51,0 74,-2 21,-1 11,3 32,3 1,-15 4,-29 5,-42 0,-14 2,-29 3,-44 -3,-2 3,1 -2,-1l-4 -2c-8,1 -11,-2 -16,-3 2,14 4,18 2,32 -1,8 -3,22 -5,29z"/>
   <path class="fil33" d="M754 739c2,9 5,29 8,36l39 1c2,-6 -7,-53 -10,-59 -4,0 -5,3 -8,6l-24 19c-5,-2 1,1 -3,-2 -1,-1 0,-1 -2,-1z"/>
   <path class="fil67" d="M468 569c5,-1 1,0 3,-2 -1,-6 -5,-23 -2,-29 -9,0 -18,-2 -21,-8 -2,-2 -2,-3 -3,-5 -5,3 -58,2 -68,12 3,4 4,4 10,5 11,1 16,0 26,5 8,4 8,-2 16,6 2,2 -1,0 2,1 2,1 -1,0 3,1 5,2 7,3 12,4 5,2 9,0 14,1 9,2 8,6 8,9z"/>
   <path class="fil55" d="M245 696c2,2 0,7 0,13 31,0 14,6 23,3l-2 3c0,0 0,1 0,1 0,0 -1,0 -1,1l17 1 12 -31c-6,-5 -11,-9 -17,-14 -3,-3 -6,-5 -9,-8 -3,-2 -7,-4 -7,-8 -4,6 -14,31 -16,39z"/>
   <path class="fil68" d="M518 96c9,11 25,44 12,60 -8,11 -21,15 -27,6 -17,-25 -2,-56 6,-61 3,-2 6,-4 9,-5zm-7 -23l-4 7c-2,4 -1,3 -5,5 0,6 -6,14 -9,20 -2,6 -5,16 -7,21l1 18c4,10 7,19 16,22l-2 2c-13,11 7,9 13,8 6,0 15,2 19,0 -3,-3 -9,-2 -17,-2 -5,0 -14,-1 -17,-3 3,-3 2,-2 7,-3 9,0 16,1 23,-5 7,-5 11,-12 13,-23 1,-20 -15,-49 -23,-62l-3 -4 -2 -1c-1,-1 0,-1 -3,0z"/>
   <path class="fil39" d="M517 677c21,1 19,0 29,-18 5,-9 13,-23 16,-31 -1,-5 1,-1 -4,-3l-16 -3c-5,0 -18,-2 -22,-1 0,10 -2,19 -3,28 0,8 0,19 0,28z"/>
   <path class="fil69" d="M921 889l0 -23c-9,4 -10,9 -35,18 -15,5 -28,8 -43,12 2,3 -5,3 17,4 0,0 0,0 0,0 0,4 5,1 8,9l4 5c2,1 0,1 3,2 -1,2 -2,2 -8,4 -4,1 -5,1 -8,2 5,1 29,-8 36,-11 3,-2 20,-11 22,-14 0,0 1,-1 1,-1 0,0 0,0 0,-1l3 -6z"/>
   <path class="fil43" d="M626 658c-3,-1 -20,6 -26,7l7 -12c-1,-4 -4,-8 -9,-7 -6,8 -20,20 -34,25 13,-8 30,-28 38,-42 -13,0 -1,-3 -31,-2 -3,8 -9,19 -14,28 -3,4 -5,9 -8,12 -6,7 -8,5 -12,9 26,-1 68,-8 89,-18z"/>
   <path class="fil70" d="M193 722c-4,1 -3,-2 -3,8 -4,-2 0,-1 -4,-3 -2,-2 -4,-2 -7,-2l-9 -3c0,-1 0,-4 0,-4 -1,-4 0,-2 -2,-4 -1,11 -3,25 -4,36 -2,13 -2,27 -2,40l27 -5 4 -63z"/>
   <path class="fil43" d="M416 840c15,6 30,5 44,10 0,4 0,7 0,11 -1,6 -2,7 0,9 8,4 48,1 59,1 -4,-3 -6,-2 -9,-8 -2,-3 -6,-7 -6,-11l31 -2 0 -4c-14,3 -49,-1 -65,-2 -29,-2 -31,-5 -55,-11l1 7z"/>
   <path class="fil71" d="M368 343c3,2 15,0 19,-1 4,-25 12,-74 36,-90 4,-2 9,-3 13,-6 -11,-5 -21,-1 -30,7 -8,7 -14,15 -19,25 -14,28 -13,48 -19,65z"/>
   <path class="fil27" d="M410 325c2,-17 12,-53 28,-66 1,-1 3,-2 4,-3 1,0 2,-1 2,-1 2,-1 1,-1 2,-2 -18,-10 -34,12 -41,27 -8,16 -16,43 -17,62 4,-1 7,-1 11,-1 1,0 3,0 4,0 0,-1 1,-1 2,-1 1,0 2,-1 2,-1l3 -14z"/>
   <path class="fil21" d="M598 646c5,-1 8,3 9,7l-7 12c6,-1 23,-8 26,-7 12,-2 24,-13 31,-20l24 -21c2,-2 1,0 3,-3 -7,1 -4,2 -13,2 -7,0 -7,1 -11,4 -12,12 -35,35 -48,38l2 -3c1,-1 2,-1 3,-2l31 -31c-7,1 -28,1 -32,4l-18 20z"/>
   <path class="fil72" d="M225 842l0 -33c-12,2 -25,2 -36,3 -6,0 -12,1 -18,2 -6,2 -9,3 -10,10 3,11 53,12 64,18z"/>
   <path class="fil18" d="M510 799l7 0 -3 -32c-1,-5 1,-6 -1,-12 -7,-2 -8,3 -9,-5l9 -1 0 -9c-4,-3 -5,1 -7,-3 -2,-5 6,0 -4,-10l-3 -5c-1,-2 0,-2 -2,-5 0,1 0,1 0,1l-1 2c-1,4 -1,13 -1,16 0,8 -1,14 -2,21 0,5 1,5 0,10 0,8 -3,24 -2,32l19 0z"/>
   <path class="fil24" d="M769 357c0,2 3,6 4,8l6 5c1,1 0,0 2,1 3,2 1,5 15,4 11,-1 9,-3 13,-10 3,-7 3,-14 1,-23l-3 -6c0,0 -1,0 -1,-1 -12,-10 -8,-5 -17,-1 -4,1 -6,1 -9,3 -3,2 -2,3 -3,7 -1,7 -8,13 -8,13z"/>
   <path class="fil43" d="M498 281c-3,9 -5,20 -7,30l-4 16c-1,2 -2,-1 -5,9 12,5 32,2 42,2 11,-1 20,1 19,-6 -7,-2 -6,3 -23,1 -4,-1 -6,-1 -10,-1 -1,0 -5,0 -6,0l-6 -3c12,-1 22,7 15,-30 -1,-4 -2,-10 -6,-13 -5,-4 4,0 -2,-1 -7,-2 -5,0 -8,-4l27 0c4,0 3,-1 4,0 -21,0 -12,-1 -24,-2 -3,0 -3,1 -8,1 0,-2 1,-10 3,-5 -1,1 -3,2 -4,2 3,2 2,2 3,4z"/>
   <path class="fil73" d="M476 647c2,5 6,11 8,16 5,7 9,8 12,14l14 0 -1 -34c-6,-3 -25,-1 -34,-1l1 5z"/>
   <path class="fil74" d="M748 174c8,3 18,5 27,2 6,-2 3,1 5,-4 1,0 1,-1 1,-1l2 -6c1,-4 1,-7 -1,-9 0,0 -4,-6 -4,-6 -4,-3 -3,-2 -7,-4l-17 0c-1,2 -1,3 -2,4 -4,6 -4,4 -4,14l2 1c2,1 1,0 3,3l-5 6z"/>
   <path class="fil39" d="M476 647l-1 -5c9,0 28,-2 34,1 0,-5 -1,-16 -4,-19 -2,-3 -40,-3 -43,-3 2,4 12,23 14,26z"/>
   <path class="fil75" d="M836 622c-2,-3 -6,-12 -9,-13 -22,4 -15,25 -13,28 9,9 19,3 21,-5 1,-3 0,-4 1,-6l0 -2c0,0 0,0 0,-1 0,0 0,0 0,-1z"/>
   <path class="fil76" d="M497 205l26 0c-1,-8 -5,-13 -7,-22 -9,0 -7,1 -11,-2 3,-2 10,-2 13,-1l-17 -1c4,2 3,1 3,6 0,0 -2,6 -2,7 -1,5 -4,9 -5,13z"/>
  </g>
 </g>
</svg>
