<svg width="51" height="57" viewBox="0 0 51 57" fill="none" xmlns="http://www.w3.org/2000/svg">
<g filter="url(#filter0_d_1_37)">
<path d="M34 4.25V12.75M17 4.25V12.75M6.375 21.25H44.625M10.625 8.5H40.375C42.7222 8.5 44.625 10.4028 44.625 12.75V42.5C44.625 44.8472 42.7222 46.75 40.375 46.75H10.625C8.27779 46.75 6.375 44.8472 6.375 42.5V12.75C6.375 10.4028 8.27779 8.5 10.625 8.5Z" stroke="#1E1E1E" stroke-width="4" stroke-linecap="round" stroke-linejoin="round"/>
</g>
<ellipse cx="24.9688" cy="28.4042" rx="12.2188" ry="11.4042" fill="#0D0000"/>
<ellipse cx="24.9688" cy="28.4042" rx="10.5896" ry="9.775" fill="#E1EDF9"/>
<rect x="12.75" y="39.8083" width="24.4375" height="1.62917" fill="#0C0000"/>
<rect x="24.1542" y="23.5167" width="1.62917" height="14.6625" fill="#0B6BC5"/>
<rect width="0.809783" height="9.33047" transform="matrix(-0.843661 -0.536875 -0.536875 0.843661 29.8467 23.9514)" fill="#0B6BC5"/>
<rect x="18.7499" y="28.8936" width="1.05896" height="9.71309" transform="rotate(-36.8699 18.7499 28.8936)" fill="#0B6BC5"/>
<defs>
<filter id="filter0_d_1_37" x="-4" y="0" width="59" height="59" filterUnits="userSpaceOnUse" color-interpolation-filters="sRGB">
<feFlood flood-opacity="0" result="BackgroundImageFix"/>
<feColorMatrix in="SourceAlpha" type="matrix" values="0 0 0 0 0 0 0 0 0 0 0 0 0 0 0 0 0 0 127 0" result="hardAlpha"/>
<feOffset dy="4"/>
<feGaussianBlur stdDeviation="2"/>
<feComposite in2="hardAlpha" operator="out"/>
<feColorMatrix type="matrix" values="0 0 0 0 0 0 0 0 0 0 0 0 0 0 0 0 0 0 0.25 0"/>
<feBlend mode="normal" in2="BackgroundImageFix" result="effect1_dropShadow_1_37"/>
<feBlend mode="normal" in="SourceGraphic" in2="effect1_dropShadow_1_37" result="shape"/>
</filter>
</defs>
</svg>
